<?xml version="1.0" encoding="utf-8"?>
<!-- Generator: Adobe Illustrator 16.0.0, SVG Export Plug-In . SVG Version: 6.00 Build 0)  -->
<!DOCTYPE svg PUBLIC "-//W3C//DTD SVG 1.1//EN" "http://www.w3.org/Graphics/SVG/1.1/DTD/svg11.dtd">
<svg version="1.1" id="Layer_1" xmlns="http://www.w3.org/2000/svg" xmlns:xlink="http://www.w3.org/1999/xlink" x="0px" y="0px"
	 width="561.189px" height="140.18px" viewBox="0 0 561.189 140.18" enable-background="new 0 0 561.189 140.18"
	 xml:space="preserve">
<g>
	<g>
		<path fill="#FFFFFF" d="M50.103,4.915v13.462H15.571v18.728h27.625v13.461H15.571v21.771H52.21v13.344H0V4.915H50.103z"/>
		<path fill="#FFFFFF" d="M99.02,44.481c-2.807-1.638-5.504-2.223-8.076-2.223c-5.266,0-8.431,3.042-10.771,6.316v37.107H64.84
			V30.081h14.512v7.61c3.398-6.32,8.666-8.659,13.931-8.659c3.51,0,7.14,0.698,10.886,2.576L99.02,44.481z"/>
		<path fill="#FFFFFF" d="M122.424,0c4.796,0,8.775,3.864,8.775,8.664c0,4.799-3.979,8.662-8.775,8.662
			c-4.92,0-8.897-3.862-8.897-8.662C113.527,3.864,117.504,0,122.424,0z M130.029,30.081v55.601h-15.333V30.081H130.029z"/>
		<path fill="#FFFFFF" d="M163.503,0v51.15l21.3-21.069h18.493l-25.979,26.34l27.386,29.261h-18.849l-22.351-24.699v24.699h-15.339
			V0H163.503z"/>
		<path fill="#FFFFFF" d="M245.892,2.573h1.169l38.978,48.932l38.977-48.932h1.056v83.108h-15.452V59.464
			c0-4.218,0.236-11.123,0.586-16.97c-1.875,3.039-6.906,10.297-10.532,14.512l-14.162,16.74h-1.058L270.937,56.42
			c-3.509-4.099-8.426-11.12-10.065-14.162c0.233,5.853,0.471,13.108,0.471,16.854v26.569h-15.45V2.573z"/>
		<path fill="#FFFFFF" d="M359.88,60.166c0,9.712,2.574,14.4,11.004,14.4c5.969,0,9.715-3.049,12.523-6.677V30.081h15.33v40.039
			c0,4.095,0.826,11.233,1.763,15.562h-15.455l-0.936-5.852c-3.511,3.513-8.428,7.141-18.259,7.141
			c-9.601,0-21.304-5.968-21.304-22.824V30.081h15.333V60.166z"/>
		<path fill="#FFFFFF" d="M459.246,35.348l-6.438,9.133c-2.457-1.987-8.775-5.268-15.33-5.268c-6.211,0-9.015,1.4-9.015,5.03
			c0,10.773,30.672,4.337,30.672,24.816c0,13.228-11.474,17.442-24.349,17.442c-9.364,0-19.321-3.394-24.82-7.956l5.971-9.604
			c4.214,3.748,11.584,7.379,18.493,7.379c7.376,0,10.301-2.225,10.301-5.972c0-10.299-30.663-4.798-30.663-25.282
			c0-10.418,9.362-16.855,23.41-16.855C445.904,28.21,455.617,32.188,459.246,35.348z"/>
		<path fill="#FFFFFF" d="M480.072,3.745c4.806,0,8.782,3.864,8.782,8.664c0,4.799-3.977,8.662-8.782,8.662
			c-4.922,0-8.897-3.862-8.897-8.662C471.175,7.608,475.15,3.745,480.072,3.745z M487.686,30.081v55.601h-15.334V30.081H487.686z"/>
		<path fill="#FFFFFF" d="M545.851,54.076c0-8.073-2.925-12.403-10.886-12.403c-6.087,0-10.655,2.458-13.814,5.268v38.741h-15.33
			V30.081h14.509v6.441c3.751-3.865,9.368-7.49,18.032-7.49c10.764,0,22.828,4.211,22.828,22.474v34.177h-15.339V54.076z"/>
	</g>
	<g opacity="0.8">
		<path fill="#FFFFFF" d="M11.108,112.317h0.77v17.387c0,1.11,0.14,2.341,0.371,3.397h-0.826l-0.26-1.715
			c-1.596,1.373-2.942,2-4.91,2c-3.367,0-6.253-2.111-6.253-7.051c0-4.854,3.312-6.77,6.477-6.77c1.856,0,3.089,0.458,4.631,1.488
			V112.317z M11.108,121.938c-1.484-1.113-2.739-1.688-4.651-1.688c-2.689,0-5.66,1.515-5.66,6.086c0,4.566,2.663,6.391,5.484,6.391
			c1.886,0,3.371-0.741,4.828-2.195V121.938z"/>
		<path fill="#FFFFFF" d="M82.321,126.588c0.027,3.887,2.769,6.114,5.737,6.114c2.2,0,3.824-0.831,4.854-1.888l0.483,0.627
			c-1.283,1.142-2.858,1.945-5.338,1.945c-3.426,0-6.479-2.345-6.479-6.885c0-4.193,2.655-6.936,6.219-6.936
			c3.769,0,5.744,2.826,5.744,6.283c0,0.283,0,0.338-0.035,0.738H82.321z M82.321,125.961h10.507
			c-0.147-3.51-1.714-5.737-5.029-5.737C84.774,120.224,82.552,122.512,82.321,125.961z"/>
		<path fill="#FFFFFF" d="M170.837,120.824l-0.462,0.629c-0.595-0.486-1.71-1.229-3.855-1.229c-1.651,0-3.823,0.517-3.823,2.771
			c0,1.826,1.857,2.339,3.823,2.914c2.2,0.627,4.512,1.282,4.512,3.737c0,2.659-1.968,3.741-4.797,3.741
			c-2.34,0-4.134-0.773-5.394-1.83l0.491-0.625c0.827,0.77,2.562,1.828,4.873,1.828c2.062,0,4.085-0.715,4.085-3.114
			c0-1.886-1.913-2.428-3.88-2.999c-2.172-0.599-4.456-1.228-4.456-3.652c0-1.828,1.254-3.428,4.565-3.428
			C168.526,119.566,169.975,120.168,170.837,120.824z"/>
		<path fill="#FFFFFF" d="M240.281,114.975c0.454,0,0.741,0.282,0.741,0.741c0,0.429-0.288,0.74-0.741,0.74
			c-0.436,0-0.75-0.312-0.75-0.74C239.53,115.257,239.845,114.975,240.281,114.975z M240.679,119.826v13.275h-0.772v-13.275H240.679
			z"/>
		<path fill="#FFFFFF" d="M321.369,118.139c0.418,0,0.879,0.086,1.333,0.202l-0.14,0.624c-0.399-0.139-0.831-0.226-1.319-0.226
			c-1.334,0-2.137,0.801-2.421,1.629c1.226,0.854,2.104,1.913,2.104,3.908c0,2.858-2.021,4.741-5.242,4.741
			c-1.174,0-2.289-0.343-3.056-0.74c-0.69,0.342-1.804,1.139-1.804,2.254c0,1.312,1.113,1.773,5.228,1.885
			c3.307,0.083,6.478,0.027,6.478,3.367c0,2.912-3.048,4.396-6.709,4.396c-4.618,0-6.453-1.484-6.453-4.139
			c0-2.057,1.835-3.115,2.717-3.514c-1.542-0.344-1.884-1.198-1.884-1.941c0-1.111,0.822-1.938,1.945-2.654
			c-1.06-0.855-1.746-1.938-1.746-3.655c0-2.795,2.026-4.71,5.284-4.71c0.882,0,1.825,0.172,2.572,0.514
			C318.877,118.596,320.109,118.139,321.369,118.139z M310.059,136.041c0,1.768,0.994,3.569,5.763,3.569c3.882,0,6-1.774,6-3.657
			c0-2.797-1.86-2.879-5.938-2.969c-1.035-0.029-2.487-0.143-3.061-0.225C311.913,133.102,310.059,133.984,310.059,136.041z
			 M315.685,120.141c-2.974,0-4.568,1.738-4.568,4.078c0,2.341,1.569,4.226,4.568,4.226c2.993,0,4.537-1.885,4.537-4.226
			C320.222,121.854,318.678,120.141,315.685,120.141z"/>
		<path fill="#FFFFFF" d="M401.369,124.479c0-3.053-1.999-4.229-4.599-4.229c-2.595,0-4.424,1.314-5.36,2.086v10.766h-0.775v-13.275
			h0.741v1.711c1.023-0.827,2.882-1.971,5.452-1.971c2.258,0,5.312,0.802,5.312,4.854v8.681h-0.771V124.479z"/>
		<path fill="#FFFFFF" d="M472.434,126.588c0.028,3.887,2.776,6.114,5.741,6.114c2.196,0,3.827-0.831,4.852-1.888l0.488,0.627
			c-1.285,1.142-2.858,1.945-5.34,1.945c-3.426,0-6.484-2.345-6.484-6.885c0-4.193,2.655-6.936,6.229-6.936
			c3.769,0,5.737,2.826,5.737,6.283c0,0.283,0,0.338-0.032,0.738H472.434z M472.434,125.961h10.508
			c-0.139-3.51-1.71-5.737-5.021-5.737C474.894,120.224,472.668,122.512,472.434,125.961z"/>
		<path fill="#FFFFFF" d="M559.698,120.885c-0.599-0.374-1.349-0.635-2.143-0.635c-2.059,0-3.055,1.688-3.564,3.256v9.596h-0.771
			v-13.275h0.771v2.255c0.627-1.601,2.077-2.515,3.564-2.515c0.892,0,1.688,0.172,2.459,0.602L559.698,120.885z"/>
	</g>
</g>
</svg>
