<?xml version="1.0" encoding="utf-8"?>
<!-- Generator: Adobe Illustrator 16.0.0, SVG Export Plug-In . SVG Version: 6.00 Build 0)  -->
<!DOCTYPE svg PUBLIC "-//W3C//DTD SVG 1.1//EN" "http://www.w3.org/Graphics/SVG/1.1/DTD/svg11.dtd">
<svg version="1.1" id="Layer_1" xmlns="http://www.w3.org/2000/svg" xmlns:xlink="http://www.w3.org/1999/xlink" x="0px" y="0px"
	 width="32.199px" height="32.209px" viewBox="0 0 32.199 32.209" enable-background="new 0 0 32.199 32.209" xml:space="preserve">
<g>
	<path fill="#D28929" d="M26.461,32.182c-6.895,0-13.793,0-20.685,0c-0.083-0.013-0.166-0.047-0.247-0.063
		c-1.707-0.209-3.084-0.999-4.149-2.33c-0.978-1.228-1.339-2.643-1.339-4.197c0.021-6.316,0.018-12.642,0.018-18.96
		c0-0.242,0-0.482,0.006-0.721c0.149-2.731,2.069-5.029,4.729-5.669c0.338-0.089,0.709-0.152,1.049-0.214c6.856,0,13.704,0,20.558,0
		c0.079,0.023,0.146,0.055,0.233,0.062c3.172,0.369,5.524,2.974,5.524,6.164c0,6.579,0,13.166,0,19.75
		c0,2.829-1.933,5.273-4.67,5.971C27.145,32.062,26.799,32.113,26.461,32.182z M24.32,12.843c1.309,4.273,0.376,7.854-3.275,10.505
		c-2.869,2.084-6.777,2.133-9.708,0.103c-3.792-2.628-4.756-6.262-3.447-10.603c-1.549,0-3.118,0-4.713,0c0,0.154,0,0.282,0,0.418
		c0,1.48,0,2.952,0,4.433c0,2.717-0.009,5.429,0.008,8.147c0.005,1.865,1.341,3.178,3.19,3.178c6.484,0,12.971,0,19.46-0.002
		c0.206,0,0.411,0,0.609-0.034c1.406-0.226,2.604-1.436,2.587-3.239c-0.025-4.163-0.011-8.339-0.011-12.51
		c0-0.13-0.007-0.253-0.015-0.396C27.421,12.843,25.875,12.843,24.32,12.843z M16.092,21.744c3.109,0.007,5.669-2.529,5.669-5.611
		c0-3.113-2.515-5.639-5.618-5.656c-3.146-0.015-5.688,2.516-5.688,5.667C10.455,19.213,12.997,21.738,16.092,21.744z M23.037,3.78
		c0,1.829,0,3.603,0,5.382c1.82,0,3.596,0,5.361,0c0-1.813,0-3.592,0-5.382C26.6,3.78,24.823,3.78,23.037,3.78z"/>
</g>
</svg>
