<?xml version="1.0" encoding="utf-8"?>
<!-- Generator: Adobe Illustrator 16.0.0, SVG Export Plug-In . SVG Version: 6.00 Build 0)  -->
<!DOCTYPE svg PUBLIC "-//W3C//DTD SVG 1.1//EN" "http://www.w3.org/Graphics/SVG/1.1/DTD/svg11.dtd">
<svg version="1.1" id="Layer_1" xmlns="http://www.w3.org/2000/svg" xmlns:xlink="http://www.w3.org/1999/xlink" x="0px" y="0px"
	 width="156.893px" height="38px" viewBox="0 0 156.893 38" enable-background="new 0 0 156.893 38" xml:space="preserve">
<g>
	<path fill="#F2F2F2" d="M3.113,0v28.407h-3.115V0H3.113z"/>
	<path fill="#F2F2F2" d="M13.394,20.08c0.273,4.279,2.759,6.461,6.379,6.461c2.454,0,4.63-0.897,6.11-2.182l1.325,2.021
		c-2.067,1.599-4.671,2.495-7.667,2.495c-5.018,0-9.343-3.232-9.343-9.616c0-5.601,3.934-9.494,9.106-9.494
		c5.063,0,8.25,3.424,8.25,8.911c0,0.469,0,0.779-0.037,1.325L13.394,20.08z M13.394,18.017h11.206
		c-0.114-3.811-1.79-5.915-5.295-5.915C15.998,12.103,13.585,14.279,13.394,18.017z"/>
	<path fill="#F2F2F2" d="M45.312,27.665c-1.475,0.783-2.914,1.211-4.553,1.211c-3.228,0-5.755-1.479-5.755-7.084
		c0-2.14,0.073-7.276,0.155-9.262h-3.424v-2.413h3.542c0-1.439,0.037-3.269,0.037-4.749l2.996-1.635
		c0,1.985-0.037,4.749-0.078,6.384h6.461v2.413h-6.461c-0.041,2.14-0.159,7.627-0.159,9.07c0,2.837,0.742,4.78,3.232,4.78
		c1.166,0,2.14-0.387,3.078-0.929L45.312,27.665z"/>
	<path fill="#F2F2F2" d="M58.784,27.665c-1.479,0.783-2.918,1.211-4.553,1.211c-3.229,0-5.76-1.479-5.76-7.084
		c0-2.14,0.077-7.276,0.155-9.262h-3.424v-2.413h3.542c0-1.439,0.037-3.269,0.037-4.749l2.996-1.635
		c0,1.985-0.036,4.749-0.073,6.384h6.457v2.413h-6.457c-0.041,2.14-0.159,7.627-0.159,9.07c0,2.837,0.742,4.78,3.229,4.78
		c1.17,0,2.14-0.387,3.078-0.929L58.784,27.665z"/>
	<path fill="#F2F2F2" d="M65.173,20.08c0.273,4.279,2.764,6.461,6.384,6.461c2.449,0,4.63-0.897,6.11-2.182l1.32,2.021
		c-2.062,1.599-4.672,2.495-7.668,2.495c-5.018,0-9.338-3.232-9.338-9.616c0-5.601,3.929-9.494,9.106-9.494
		c5.059,0,8.25,3.424,8.25,8.911c0,0.469,0,0.779-0.041,1.325L65.173,20.08z M65.173,18.017h11.21
		c-0.118-3.811-1.794-5.915-5.295-5.915C67.777,12.103,65.364,14.279,65.173,18.017z"/>
	<path fill="#F2F2F2" d="M96.508,13.268c-0.855-0.505-1.83-0.774-2.8-0.774c-2.259,0-3.465,1.593-4.203,3.224v12.689h-3.114v-18.29
		h2.996v2.764c0.975-2.099,2.841-3.114,4.708-3.114c1.207,0,2.336,0.232,3.506,0.856L96.508,13.268z"/>
	<path fill="#F2F2F2" d="M104.612,2.295c1.13,0,2.062,0.933,2.062,2.062s-0.933,2.099-2.062,2.099c-1.165,0-2.104-0.97-2.104-2.099
		S103.447,2.295,104.612,2.295z M106.17,10.117v18.29h-3.114v-18.29H106.17z"/>
	<path fill="#F2F2F2" d="M128.395,17.275c0-3.383-1.831-4.899-4.868-4.899c-2.8,0-4.826,1.284-5.991,2.295v13.737h-3.115v-18.29
		h2.96v2.217c1.32-1.207,3.506-2.568,6.693-2.568c3.306,0,7.431,1.243,7.431,7.044v11.597h-3.069L128.395,17.275z"/>
	<path fill="#F2F2F2" d="M154.361,7.667c0.819,0,1.598,0.114,2.531,0.387l-0.547,1.944c-0.505-0.273-1.011-0.387-1.712-0.387
		c-1.32,0-2.294,0.779-2.686,1.79c1.438,1.166,2.531,2.531,2.531,4.945c0,3.811-2.919,6.693-7.9,6.693
		c-1.634,0-2.727-0.236-3.696-0.701c-1.012,0.428-2.141,1.166-2.141,2.331c0,1.676,1.517,2.026,6.033,2.104
		c4.316,0.078,9.452,0.273,9.452,5.137c0,4.476-4.78,6.073-9.844,6.073c-5.874,0-9.339-1.712-9.339-5.336
		c0-2.413,2.254-3.889,3.465-4.435c-1.866-0.66-2.495-1.831-2.495-2.919c0-1.753,1.212-2.8,3.001-3.893
		c-1.517-1.202-2.531-2.801-2.531-5.054c0-3.852,2.918-6.58,8.018-6.58c1.166,0,2.331,0.155,3.388,0.505
		C150.937,8.369,152.571,7.667,154.361,7.667z M139.727,32.337c0,2.104,1.248,3.697,6.853,3.697c5.06,0,7.008-1.676,7.008-3.774
		c0-3.037-3.424-3.037-7.085-3.11c-2.021-0.041-3.388-0.159-4.089-0.236C141.325,29.377,139.727,30.352,139.727,32.337z
		 M146.466,11.829c-3.155,0-5.141,1.749-5.141,4.517c0,2.8,1.985,4.708,5.141,4.708c3.224,0,5.173-1.908,5.173-4.708
		C151.639,13.578,149.689,11.829,146.466,11.829z"/>
</g>
</svg>
