<?xml version="1.0" encoding="utf-8"?>
<!-- Generator: Adobe Illustrator 16.0.0, SVG Export Plug-In . SVG Version: 6.00 Build 0)  -->
<!DOCTYPE svg PUBLIC "-//W3C//DTD SVG 1.1//EN" "http://www.w3.org/Graphics/SVG/1.1/DTD/svg11.dtd">
<svg version="1.1" id="Layer_1" xmlns="http://www.w3.org/2000/svg" xmlns:xlink="http://www.w3.org/1999/xlink" x="0px" y="0px"
	 width="75.856px" height="38px" viewBox="0 0 75.856 38" enable-background="new 0 0 75.856 38" xml:space="preserve">
<g>
	<path fill="#F05354" d="M3.114,0v28.401H0V0H3.114z"/>
	<path fill="#F05354" d="M29.457,19.296c0,5.409-3.578,9.573-9.651,9.573c-6.027,0-9.609-4.164-9.609-9.573
		c0-5.449,3.583-9.532,9.609-9.532C25.879,9.765,29.457,13.848,29.457,19.296z M13.388,19.296c0,4.083,2.176,7.238,6.418,7.238
		c4.279,0,6.46-3.154,6.46-7.238c0-4.124-2.181-7.161-6.46-7.161C15.563,12.136,13.388,15.172,13.388,19.296z"/>
	<path fill="#F05354" d="M51.179,7.666c0.82,0,1.595,0.114,2.531,0.387l-0.545,1.943c-0.51-0.273-1.012-0.387-1.713-0.387
		c-1.324,0-2.294,0.779-2.685,1.79c1.438,1.165,2.531,2.53,2.531,4.943c0,3.811-2.922,6.691-7.902,6.691
		c-1.629,0-2.722-0.235-3.696-0.7c-1.011,0.428-2.14,1.165-2.14,2.33c0,1.675,1.521,2.026,6.031,2.104
		c4.32,0.077,9.456,0.273,9.456,5.135c0,4.475-4.785,6.072-9.843,6.072c-5.876,0-9.341-1.711-9.341-5.335
		c0-2.412,2.258-3.888,3.464-4.434c-1.867-0.66-2.49-1.83-2.49-2.918c0-1.753,1.206-2.8,2.995-3.893
		c-1.516-1.201-2.531-2.799-2.531-5.053c0-3.851,2.922-6.577,8.021-6.577c1.166,0,2.331,0.154,3.382,0.505
		C47.756,8.367,49.386,7.666,51.179,7.666z M36.549,32.33c0,2.103,1.247,3.696,6.846,3.696c5.062,0,7.006-1.677,7.006-3.774
		c0-3.036-3.423-3.036-7.079-3.109c-2.026-0.041-3.387-0.159-4.088-0.236C38.143,29.37,36.549,30.345,36.549,32.33z M43.282,11.826
		c-3.155,0-5.139,1.749-5.139,4.516c0,2.8,1.984,4.707,5.139,4.707c3.227,0,5.176-1.907,5.176-4.707
		C48.458,13.575,46.509,11.826,43.282,11.826z"/>
	<path fill="#F05354" d="M75.856,19.296c0,5.409-3.582,9.573-9.65,9.573c-6.03,0-9.608-4.164-9.608-9.573
		c0-5.449,3.578-9.532,9.608-9.532C72.274,9.765,75.856,13.848,75.856,19.296z M59.788,19.296c0,4.083,2.181,7.238,6.418,7.238
		c4.283,0,6.46-3.154,6.46-7.238c0-4.124-2.177-7.161-6.46-7.161C61.969,12.136,59.788,15.172,59.788,19.296z"/>
</g>
</svg>
