<?xml version="1.0" encoding="utf-8"?>
<!-- Generator: Adobe Illustrator 16.0.0, SVG Export Plug-In . SVG Version: 6.00 Build 0)  -->
<!DOCTYPE svg PUBLIC "-//W3C//DTD SVG 1.1//EN" "http://www.w3.org/Graphics/SVG/1.1/DTD/svg11.dtd">
<svg version="1.1" id="Layer_1" xmlns="http://www.w3.org/2000/svg" xmlns:xlink="http://www.w3.org/1999/xlink" x="0px" y="0px"
	 width="100px" height="100px" viewBox="0 0 100 100" enable-background="new 0 0 100 100" xml:space="preserve">
<path fill="#010101" d="M90.613,0H9.39C4.211,0,0,4.214,0,9.392v81.217C0,95.787,4.211,100,9.39,100h81.223
	c5.176,0,9.387-4.213,9.387-9.392V9.392C100,4.214,95.789,0,90.613,0z M95.251,90.608c0,2.561-2.08,4.643-4.638,4.643H9.39
	c-2.558,0-4.641-2.082-4.641-4.643V9.392c0-2.56,2.083-4.643,4.641-4.643h81.223c2.558,0,4.638,2.083,4.638,4.643V90.608z"/>
</svg>
