<?xml version="1.0" encoding="utf-8"?>
<!-- Generator: Adobe Illustrator 16.0.0, SVG Export Plug-In . SVG Version: 6.00 Build 0)  -->
<!DOCTYPE svg PUBLIC "-//W3C//DTD SVG 1.1//EN" "http://www.w3.org/Graphics/SVG/1.1/DTD/svg11.dtd">
<svg version="1.1" id="Layer_1" xmlns="http://www.w3.org/2000/svg" xmlns:xlink="http://www.w3.org/1999/xlink" x="0px" y="0px"
	 width="32.199px" height="32.209px" viewBox="0 0 32.199 32.209" enable-background="new 0 0 32.199 32.209" xml:space="preserve">
<g>
	<path fill="#777777" d="M22.346,14.563c-1.209,0.034-2.098,0.956-2.062,2.167c1.489,0,2.979,0,4.512,0
		C24.76,15.32,23.82,14.521,22.346,14.563z"/>
	<path fill="#777777" d="M12.006,16.847c-1.338-0.021-2.679-0.01-4.05-0.01c0,1.219,0,2.412,0,3.594
		c1.461,0,2.888,0.051,4.306-0.011c0.767-0.043,1.223-0.638,1.364-1.511c0.139-0.819-0.138-1.48-0.793-1.824
		C12.575,16.955,12.281,16.853,12.006,16.847z"/>
	<path fill="#777777" d="M31.152,0.017H1.018C0.452,0.017,0,0.478,0,1.034v11.438v15.916v2.785c0,0.564,0.452,1.02,1.018,1.02H3.54
		h24.946h2.666c0.557,0,1.013-0.452,1.013-1.02V1.034C32.165,0.478,31.709,0.017,31.152,0.017z M25.291,9.778
		c0,0.474,0,0.891,0,1.338c-1.975,0-3.919,0-5.907,0c0-0.447,0-0.877,0-1.338C21.359,9.778,23.294,9.778,25.291,9.778z
		 M12.976,22.796c-1.986,0.162-3.99,0.128-5.985,0.168c-0.597,0.016-1.202,0-1.838,0c0-4.681,0-9.292,0-13.945
		C5.291,8.997,5.41,8.963,5.526,8.963c2.338,0.013,4.667,0,6.998,0.056c1.285,0.033,2.382,0.528,3.098,1.656
		c1.007,1.58,0.598,3.392-1.103,4.783c1.169,0.55,1.833,1.395,2.014,2.627C16.896,20.442,15.34,22.61,12.976,22.796z M21.367,20.812
		c0.583,0.309,1.443,0.388,2.092,0.207c0.008-0.011,0.025-0.015,0.048-0.015c0.044-0.021,0.097-0.034,0.138-0.052
		c0.438-0.203,0.963-1.042,0.963-1.042h0.859c0.225-0.019,0.459-0.019,0.696,0c0.032,0,0.058,0,0.092,0h1.293
		c-0.487,1.425-1.266,2.376-2.43,2.848c-1.942,0.792-3.905,0.777-5.716-0.446c-0.854-0.576-1.445-1.361-1.702-2.361
		c-0.367-1.479-0.397-2.984,0.101-4.429c0.651-1.865,2.028-2.91,3.985-3.137c2.573-0.289,4.582,0.79,5.409,2.882
		c0.404,1.026,0.453,2.086,0.373,3.234c-2.477,0-4.93,0-7.373,0C20.105,19.511,20.559,20.392,21.367,20.812z"/>
	<path fill="#777777" d="M13.363,13.021L13.363,13.021c0-0.095,0-0.193,0-0.288c-0.039-0.676-0.452-1.218-1.181-1.254
		c-1.398-0.063-2.796-0.019-4.227-0.019C7.942,11.6,7.92,11.744,7.92,11.885c0,0.841,0,1.676,0,2.712h4.183
		C12.104,14.598,13.363,14.332,13.363,13.021z"/>
</g>
</svg>
