<?xml version="1.0" encoding="utf-8"?>
<!-- Generator: Adobe Illustrator 16.0.0, SVG Export Plug-In . SVG Version: 6.00 Build 0)  -->
<!DOCTYPE svg PUBLIC "-//W3C//DTD SVG 1.1//EN" "http://www.w3.org/Graphics/SVG/1.1/DTD/svg11.dtd">
<svg version="1.1" id="Layer_1" xmlns="http://www.w3.org/2000/svg" xmlns:xlink="http://www.w3.org/1999/xlink" x="0px" y="0px"
	 width="32.199px" height="32.209px" viewBox="0 0 32.199 32.209" enable-background="new 0 0 32.199 32.209" xml:space="preserve">
<path fill="#777777" d="M32.186,15.695c-0.008-0.233-0.021-0.467-0.043-0.694c-0.017-0.344-0.047-0.682-0.097-1.02
	c-0.019-0.179-0.053-0.351-0.081-0.522c-0.059-0.367-0.129-0.729-0.217-1.083c-0.031-0.155-0.078-0.314-0.117-0.468
	c-0.093-0.353-0.197-0.698-0.318-1.036c-0.056-0.172-0.117-0.34-0.184-0.51c-0.117-0.306-0.24-0.607-0.375-0.907
	c-0.091-0.199-0.184-0.389-0.283-0.579c-0.13-0.258-0.263-0.517-0.408-0.768c-0.123-0.216-0.25-0.427-0.379-0.633
	c-0.146-0.217-0.287-0.438-0.437-0.649c-0.153-0.221-0.317-0.427-0.479-0.64c-0.154-0.193-0.312-0.389-0.478-0.577
	c-0.165-0.198-0.343-0.387-0.515-0.571c-0.188-0.2-0.387-0.399-0.59-0.587c-0.153-0.15-0.317-0.295-0.479-0.436
	c-0.256-0.221-0.516-0.438-0.784-0.644c-0.116-0.089-0.229-0.176-0.351-0.261C25.229,2.855,24.87,2.613,24.5,2.39
	c-0.038-0.023-0.084-0.052-0.125-0.072c-1.831-1.109-3.898-1.858-6.111-2.154C17.557,0.071,16.836,0,16.1,0
	c-1.013,0-2.004,0.11-2.97,0.297c-0.529,0.117-1.062,0.226-1.589,0.378c-0.067,0.02-0.123,0.056-0.19,0.074
	c-0.771,0.244-1.53,0.525-2.246,0.875C8.984,1.68,8.873,1.73,8.759,1.79C8.077,2.134,7.432,2.531,6.817,2.967
	C6.626,3.101,6.442,3.241,6.258,3.385C5.692,3.818,5.157,4.279,4.657,4.782c-0.141,0.141-0.264,0.289-0.403,0.44
	C3.769,5.76,3.292,6.32,2.879,6.926c-0.026,0.04-0.06,0.078-0.086,0.121c-0.5,0.743-0.941,1.521-1.31,2.343v0.002
	C0.54,11.439,0,13.708,0,16.107c0,0.359,0.026,0.705,0.053,1.058c0.005,0.168-0.02,0.329-0.008,0.499
	c0.034,0.412,0.139,0.801,0.203,1.205c0.034,0.19,0.064,0.384,0.102,0.577c0.297,1.443,0.796,2.82,1.482,4.113
	c0.136,0.26,0.283,0.513,0.441,0.766c0.239,0.4,0.486,0.79,0.763,1.168c0.37,0.508,0.757,0.996,1.18,1.453
	c0.091,0.104,0.177,0.203,0.275,0.304c0.582,0.597,1.201,1.157,1.867,1.656c0.017,0.015,0.033,0.028,0.051,0.036
	c0.601,0.451,1.239,0.854,1.896,1.217c0.271,0.15,0.556,0.277,0.837,0.412c0.401,0.197,0.811,0.381,1.226,0.537
	c0.344,0.135,0.692,0.256,1.049,0.365c0.359,0.109,0.729,0.194,1.097,0.281c0.424,0.098,0.836,0.199,1.271,0.262h0.016
	c0.571,0.084,1.138,0.125,1.704,0.146c0.205,0.007,0.396,0.047,0.594,0.047c0.264,0,0.514-0.051,0.776-0.062
	c0.165-0.006,0.322-0.027,0.48-0.039c0.865-0.071,1.703-0.201,2.518-0.4c0.124-0.027,0.25-0.057,0.368-0.089
	c0.737-0.198,1.442-0.448,2.135-0.744c0.222-0.089,0.455-0.183,0.671-0.288c0.309-0.145,0.607-0.304,0.903-0.468
	c0.565-0.316,1.118-0.652,1.647-1.025c0.098-0.071,0.19-0.145,0.289-0.222c0.244-0.184,0.479-0.373,0.711-0.571
	c0.271-0.229,0.534-0.467,0.791-0.718c0.045-0.044,0.1-0.1,0.151-0.143c2.331-2.312,3.963-5.312,4.476-8.737
	c0.037-0.249,0.043-0.493,0.068-0.737c0.021-0.15,0.032-0.302,0.046-0.445c0.027-0.332,0.042-0.66,0.054-0.992
	c0-0.145,0.021-0.283,0.021-0.421C32.205,15.968,32.186,15.834,32.186,15.695z M29.786,15.829c0,0-3.951-1.098-8.972-0.401
	c-0.119,0.018-0.25,0.04-0.375,0.062c-0.037-0.096-0.086-0.188-0.125-0.282c-0.311-0.709-0.625-1.394-0.939-2.058
	c-0.059-0.119-0.121-0.229-0.172-0.347c0.691-0.293,1.352-0.589,1.943-0.886c4.019-2.009,5.814-4.019,5.814-4.019
	C28.74,10.052,29.623,12.758,29.786,15.829z M18.503,18.688c0.2,0.496,0.394,1.004,0.586,1.521c0.711,2.451,1.403,4.906,2.116,7.363
	c0.248,0.86,0.02,1.294-0.908,1.562c-2.125,0.62-4.151,0.775-6.116,0.497c-2.214-0.313-4.34-1.187-6.394-2.653
	C7.788,26.978,11.648,21.11,18.503,18.688z M25.117,5.855c-2.102,2.151-4.538,3.689-7.024,4.785c-2.601-4.832-5.012-7.84-5.012-7.84
	C17.665,1.896,21.551,2.979,25.117,5.855z M10.315,3.757c1.257,1.96,2.504,3.896,3.772,5.871c0.358,0.622,0.727,1.284,1.102,1.987
	c-3.169,0.833-6.242,1.315-9.408,1.527c-1.006,0.065-2.028,0.11-3.061,0.123C3.848,8.842,6.305,5.781,10.315,3.757z M2.47,15.929
	c0.929-0.006,1.818-0.046,2.687-0.093c4.158-0.233,7.653-0.905,10.542-1.778c0.217-0.062,0.42-0.131,0.629-0.203
	c0.068,0.127,0.124,0.237,0.191,0.369c0.279,0.571,0.555,1.162,0.824,1.768c0.027,0.055,0.056,0.116,0.081,0.176
	c-0.43,0.128-0.858,0.293-1.289,0.45c-3.571,1.343-7.223,3.829-10.161,8.33c-0.037,0.066-0.09,0.121-0.129,0.189
	C3.559,22.449,2.372,19.446,2.47,15.929z M23.932,27.317c-0.521-3.342-1.435-6.495-2.512-9.373c2.445-0.426,5.167-0.405,8.164,0.428
	C28.863,22.149,27.021,25.06,23.932,27.317z"/>
</svg>
