<?xml version="1.0" standalone="no"?>
<!DOCTYPE svg PUBLIC "-//W3C//DTD SVG 1.1//EN" "http://www.w3.org/Graphics/SVG/1.1/DTD/svg11.dtd" >
<svg xmlns="http://www.w3.org/2000/svg" xmlns:xlink="http://www.w3.org/1999/xlink" version="1.1">
<metadata></metadata>
<defs>
<font id="718_thinbold" horiz-adv-x="1236" >
<font-face units-per-em="2048" ascent="1536" descent="-512" />
<missing-glyph horiz-adv-x="532" />
<glyph unicode="&#xfb01;" horiz-adv-x="1415" d="M37 770v203h180v135q0 113 34.5 196t95.5 129t134 67.5t160 21.5q136 0 252 -58l-78 -180q-70 37 -141 37q-90 0 -141.5 -51.5t-51.5 -153.5v-143h346v-203h-346v-770h-264v770h-180zM967 1282q0 63 45.5 107.5t109.5 44.5q63 0 108.5 -44.5t45.5 -107.5t-45.5 -107.5 t-108.5 -44.5q-64 0 -109.5 44.5t-45.5 107.5zM987 0v973h270v-973h-270z" />
<glyph unicode="&#xfb02;" horiz-adv-x="1427" d="M37 770v203h180v135q0 113 34.5 196t95.5 129t134 67.5t160 21.5q74 0 127.5 -12.5t114.5 -41.5l-78 -180q-59 33 -131 33q-90 0 -141.5 -51.5t-51.5 -153.5v-143h318v-203h-318v-770h-264v770h-180zM1001 0v1499h269v-1499h-269z" />
<glyph unicode="&#xfb03;" horiz-adv-x="2158" d="M37 770v203h180v135q0 113 34.5 196t95.5 129t134 67.5t160 21.5q145 0 264 -64l-78 -180q-72 43 -153 43q-90 0 -141.5 -51.5t-51.5 -153.5v-143h480v135q0 113 34.5 196t95 129t133.5 67.5t160 21.5q74 0 131 -13t121 -45l-75 -180q-70 37 -144 37q-89 0 -140.5 -51.5 t-51.5 -153.5v-143h346v-203h-346v-770h-264v770h-480v-770h-264v770h-180zM1710 1282q0 63 45.5 107.5t110.5 44.5q63 0 108 -44.5t45 -107.5t-45 -107.5t-108 -44.5q-65 0 -110.5 44.5t-45.5 107.5zM1733 0v973h268v-973h-268z" />
<glyph unicode="&#xfb04;" horiz-adv-x="2170" d="M37 770v203h180v135q0 113 34.5 196t95.5 129t134 67.5t160 21.5q145 0 264 -64l-78 -180q-72 43 -153 43q-90 0 -141.5 -51.5t-51.5 -153.5v-143h480v135q0 113 34.5 196t95 129t133.5 67.5t160 21.5q74 0 127.5 -12.5t114.5 -41.5l-78 -180q-59 33 -131 33 q-89 0 -140.5 -51.5t-51.5 -153.5v-143h336v-203h-336v-770h-264v770h-480v-770h-264v770h-180zM1747 0v1499h266v-1499h-266z" />
<glyph horiz-adv-x="0" />
<glyph horiz-adv-x="682" />
<glyph unicode=" "  horiz-adv-x="532" />
<glyph unicode="&#x09;" horiz-adv-x="532" />
<glyph unicode="&#xa0;" horiz-adv-x="532" />
<glyph unicode="!" horiz-adv-x="587" d="M127 141q0 69 49.5 117.5t118.5 48.5q68 0 117 -48.5t49 -117.5q0 -67 -49.5 -116.5t-116.5 -49.5q-69 0 -118.5 49t-49.5 117zM143 1389v24h303v-24l-51 -930h-202z" />
<glyph unicode="&#x22;" horiz-adv-x="874" d="M66 1243v168h284v-168l-65 -352h-154zM518 1243v168h285v-168l-68 -352h-153z" />
<glyph unicode="#" d="M63 293v178h213l35 352h-221v176h240l35 301h182l-35 -301h283l34 301h181l-33 -301h199v-176h-218l-36 -352h227v-178h-248l-33 -293h-180l31 293h-283l-33 -293h-182l33 293h-191zM457 471h282l37 352h-282z" />
<glyph unicode="$" d="M104 313l129 176q76 -61 185 -106t211 -45q116 0 171.5 35t55.5 98q0 20 -8.5 37t-28.5 31t-38.5 24.5t-54 22t-59 18.5t-67.5 19q-46 12 -65.5 17.5t-63.5 19t-65.5 23t-58 26.5t-55.5 32.5t-44.5 39t-37.5 48t-21 56t-9 67.5q0 129 87.5 213.5t246.5 110.5v190h254 v-188q102 -18 200 -59t150 -82l-133 -168q-59 41 -144.5 76.5t-176.5 35.5q-105 0 -157 -29t-52 -81q0 -20 8.5 -37t28.5 -31t38.5 -24.5t54 -22t59 -18.5t67.5 -19q42 -11 66 -17.5t64 -19.5t65 -23.5t58.5 -27t54.5 -33t44.5 -39.5t36.5 -48t21.5 -56.5t8.5 -67.5 q0 -79 -29 -139.5t-80.5 -99.5t-114 -61.5t-138.5 -32.5v-217h-254v219q-120 18 -228 60.5t-182 96.5z" />
<glyph unicode="%" horiz-adv-x="1759" d="M61 1055q0 168 89.5 271.5t230.5 103.5q145 0 235.5 -103.5t90.5 -271.5q0 -167 -90.5 -270t-235.5 -103q-140 0 -230 103.5t-90 269.5zM258 0l1067 1413h172l-1065 -1413h-174zM260 1055q0 -94 31.5 -152.5t89.5 -58.5q61 0 93 58t32 153q0 96 -32 152.5t-93 56.5 q-58 0 -89.5 -57t-31.5 -152zM1053 356q0 168 89.5 271.5t229.5 103.5q145 0 235.5 -103.5t90.5 -271.5q0 -167 -90.5 -269.5t-235.5 -102.5q-140 0 -229.5 103t-89.5 269zM1251 356q0 -94 31.5 -152.5t89.5 -58.5q61 0 93 58t32 153q0 96 -32 152.5t-93 56.5 q-58 0 -89.5 -57t-31.5 -152z" />
<glyph unicode="&#x26;" horiz-adv-x="1456" d="M98 459q0 174 94.5 300t266.5 202l-301 436l4 16h964v-233h-530l491 -707q42 64 121 211l207 -119q-110 -187 -190 -286l188 -285h-280l-95 131q-184 -156 -409 -156q-113 0 -203.5 27.5t-151 73.5t-101 109.5t-58 133t-17.5 146.5zM352 459q0 -52 15.5 -99t47 -88 t87 -65.5t129.5 -24.5q88 0 153 31.5t129 89.5l-327 473q-234 -89 -234 -317z" />
<glyph unicode="'" horiz-adv-x="415" d="M66 1243v168h284v-168l-65 -352h-154z" />
<glyph unicode="(" horiz-adv-x="780" d="M82 604q0 192 77.5 366.5t224 307.5t339.5 199l35 -70q-129 -67 -225 -200t-142.5 -288.5t-46.5 -314.5q0 -157 46.5 -312t142.5 -287.5t225 -199.5l-35 -69q-194 66 -340 198.5t-223.5 305.5t-77.5 364z" />
<glyph unicode=")" horiz-adv-x="780" d="M23 -193q129 67 225 200t142 287.5t46 311.5q0 159 -46 314.5t-142 288.5t-225 200l34 68q292 -99 466.5 -339t174.5 -532q0 -191 -77.5 -364t-223.5 -305.5t-340 -198.5z" />
<glyph unicode="*" horiz-adv-x="972" d="M49 1106l60 184l114 -35l209 -118l-43 239v119h195v-119l-47 -239l215 120l112 35l62 -186l-113 -37l-244 -31l179 -168l73 -96l-159 -115l-70 97l-105 223l-102 -223l-72 -97l-157 115l71 94l179 168l-244 31z" />
<glyph unicode="+" d="M147 621v210h351v365h237v-365h352v-210h-352v-357h-237v357h-351z" />
<glyph unicode="," horiz-adv-x="542" d="M84 -293l53 594h297v-14l-258 -580h-92z" />
<glyph unicode="-" horiz-adv-x="925" d="M137 371v229h651v-229h-651z" />
<glyph unicode="." horiz-adv-x="542" d="M106 143q0 69 49.5 117.5t118.5 48.5q68 0 117 -48.5t49 -117.5q0 -67 -49 -116.5t-117 -49.5q-69 0 -118.5 49t-49.5 117z" />
<glyph unicode="/" horiz-adv-x="837" d="M-8 -68l624 1518h228l-625 -1518h-227z" />
<glyph unicode="0" d="M80 709q0 330 149.5 532.5t388.5 202.5q242 0 389.5 -202t147.5 -533q0 -220 -67 -388t-189 -260t-281 -92q-157 0 -279.5 92t-190.5 260.5t-68 387.5zM344 709q0 -232 72.5 -373t201.5 -141q131 0 203 140.5t72 373.5q0 231 -72 368t-203 137q-130 0 -202 -137.5 t-72 -367.5z" />
<glyph unicode="1" d="M125 0v215h364v911l-364 -116v231l612 207h17v-1233h358v-215h-987z" />
<glyph unicode="2" d="M86 0v31l150 170q36 40 98.5 111t92 104.5t79 91t73.5 87.5t60 77t53 75t39 66.5t31.5 67.5t16.5 61t7 62q0 96 -57 153t-164 57q-58 0 -109 -22t-88 -60.5t-58.5 -68.5t-43.5 -68l-180 148q109 160 228 228.5t282 68.5q196 0 329.5 -118.5t133.5 -305.5q0 -58 -11 -113 t-37 -109t-50 -96.5t-69 -99t-74.5 -90.5t-84.5 -96q-22 -25 -33 -37l-129 -146h545v-229h-1030z" />
<glyph unicode="3" d="M76 195l164 176q31 -36 44.5 -51.5t49.5 -47t66 -46t78 -27.5t102 -13q132 0 206 75t74 208q0 143 -80 213t-209 70q-74 0 -151 -20t-133 -52l-19 18l342 486h-434v229h920v-16l-371 -473q200 -29 293.5 -139.5t93.5 -315.5q0 -97 -32.5 -185.5t-95 -159.5t-163 -113 t-225.5 -42q-180 0 -302 59t-218 167z" />
<glyph unicode="4" d="M29 283v26l485 1127h279l-410 -934h330v348h260v-348h198v-219h-198v-283h-262v283h-682z" />
<glyph unicode="5" d="M92 182l154 178q145 -167 338 -167q131 0 205.5 75.5t74.5 202.5q0 144 -84 213.5t-227 69.5q-177 0 -356 -136l-13 9l84 786h815v-229h-608l-35 -266q101 36 199 36q101 0 186.5 -28.5t151.5 -86t103.5 -152t37.5 -218.5q0 -96 -35.5 -185.5t-100 -159.5t-163.5 -112.5 t-217 -42.5q-304 0 -510 213z" />
<glyph unicode="6" d="M92 647q0 165 29.5 299t80.5 225.5t122 153t151 89.5t170 28q120 0 219.5 -32t218.5 -114l-137 -172q-124 111 -291 111q-139 0 -221 -115.5t-82 -312.5q66 55 158 90t192 35q210 0 332.5 -129.5t122.5 -335.5q0 -103 -33.5 -192.5t-97.5 -158t-164 -108t-225 -39.5 q-118 0 -217.5 44.5t-172.5 128.5t-114 213.5t-41 291.5zM360 532q0 -71 16.5 -133t49.5 -112t88.5 -78.5t128.5 -28.5q124 0 198 77.5t74 197.5q0 124 -73 198t-189 74q-76 0 -154.5 -34t-133.5 -93q-5 -50 -5 -68z" />
<glyph unicode="7" d="M74 1184v229h1079v-22q-136 -266 -283 -671t-225 -720h-283q154 613 406 1184h-694z" />
<glyph unicode="8" d="M94 373q0 67 23 126.5t62.5 103.5t82 76t92.5 56q-50 34 -81.5 62t-61 66.5t-43.5 88t-14 111.5q0 170 128.5 279.5t346.5 109.5q132 0 236.5 -41.5t169.5 -130.5t65 -215q0 -189 -223 -332q62 -31 104.5 -60t82.5 -70.5t59.5 -96.5t19.5 -125q0 -109 -41.5 -190.5 t-114.5 -128t-163 -69t-197 -22.5q-114 0 -209 23.5t-168.5 71t-114.5 126t-41 181.5zM352 387q0 -103 74.5 -158t198.5 -55q129 0 193.5 58.5t64.5 144.5q0 36 -14.5 65.5t-38.5 53t-70 47.5t-95 43.5t-126 46.5q-94 -39 -140.5 -98.5t-46.5 -147.5zM408 1063 q0 -84 66 -137t212 -107q79 45 129.5 107t50.5 131q0 46 -20.5 81.5t-55.5 56t-76 30.5t-87 10q-106 0 -162.5 -47.5t-56.5 -124.5z" />
<glyph unicode="9" d="M88 946q0 137 61 249t180 179.5t275 67.5q257 0 404 -170t147 -506q0 -177 -28 -314.5t-77.5 -228t-122.5 -149t-157 -83t-186 -24.5q-125 0 -249 39.5t-229 118.5l127 188q68 -61 157 -95t175 -34q163 0 244.5 103t85.5 321q-66 -56 -156.5 -90.5t-193.5 -34.5 q-211 0 -334 129t-123 334zM330 963q0 -124 73 -194.5t189 -70.5q80 0 156.5 33t132.5 94q4 40 4 64q0 69 -16 129.5t-48 110t-88 78t-129 28.5q-121 0 -197.5 -77.5t-76.5 -194.5z" />
<glyph unicode=":" horiz-adv-x="542" d="M106 143q0 69 49.5 117.5t118.5 48.5q68 0 117 -48.5t49 -117.5q0 -67 -49 -116.5t-117 -49.5q-69 0 -118.5 49t-49.5 117zM106 807q0 68 49.5 117t118.5 49q68 0 117 -49.5t49 -116.5q0 -68 -49.5 -118t-116.5 -50q-69 0 -118.5 50t-49.5 118z" />
<glyph unicode=";" horiz-adv-x="542" d="M84 -293l53 594h297v-14l-258 -580h-92zM109 807q0 68 49 117t118 49q68 0 117 -49.5t49 -116.5q0 -68 -49.5 -118t-116.5 -50q-69 0 -118 50t-49 118z" />
<glyph unicode="&#x3c;" d="M150 717v86l937 463v-234l-585 -272l585 -275v-231z" />
<glyph unicode="=" d="M147 383v205h940v-205h-940zM147 829v205h940v-205h-940z" />
<glyph unicode="&#x3e;" d="M150 254v231l585 275l-585 272v234l937 -463v-86z" />
<glyph unicode="?" horiz-adv-x="911" d="M29 1241q99 105 198 151t242 46q163 0 268 -98t105 -244q0 -76 -25.5 -138.5t-63.5 -102t-83 -77.5t-83 -67t-63.5 -68.5t-25.5 -83.5q0 -47 18 -100h-237q-19 66 -19 106q0 50 18.5 96t48 80.5t65 67t71 62t65 58.5t48 63.5t18.5 70.5q0 72 -42.5 116t-129.5 44 q-128 0 -240 -133zM223 141q0 69 49.5 117.5t118.5 48.5q68 0 116 -48.5t48 -117.5q0 -68 -48.5 -117t-115.5 -49q-69 0 -118.5 49t-49.5 117z" />
<glyph unicode="@" horiz-adv-x="1794" d="M106 455q0 160 55 301.5t155 248t252 168.5t335 62q124 0 237.5 -27.5t213 -85.5t172.5 -142t115 -204.5t42 -265.5q0 -232 -102 -339.5t-278 -107.5q-145 0 -207 93q-59 -48 -124 -76.5t-153 -28.5q-130 0 -211.5 66t-81.5 194q0 76 32 132t87 86t118 43.5t136 13.5 q86 0 160 -19v58q0 71 -43 99t-119 28q-64 0 -141.5 -24.5t-128.5 -55.5l-64 155q72 41 165.5 63.5t182.5 22.5q371 0 371 -323v-275q0 -78 22 -118.5t82 -40.5q87 0 143 87.5t56 270.5q0 151 -54 272t-147.5 198t-215.5 118t-263 41q-163 0 -298 -58.5t-221 -155.5 t-132.5 -220t-46.5 -256q0 -106 27 -204t85 -185t140.5 -151t201.5 -101t261 -37q202 0 419 94l48 -82q-103 -47 -231 -74.5t-236 -27.5q-155 0 -287 39t-228.5 109.5t-165 166.5t-102 211.5t-33.5 243.5zM739 317q0 -52 36 -88t99 -36q93 0 187 67v180q-82 21 -133 21 q-83 0 -136 -33t-53 -111z" />
<glyph unicode="A" horiz-adv-x="1480" d="M31 0l702 1462h17l700 -1462h-305l-111 248h-600l-104 -248h-299zM524 467h412l-195 465z" />
<glyph unicode="B" horiz-adv-x="1298" d="M176 0v1413q203 8 436 8q264 0 390 -94t126 -295q0 -90 -49.5 -163t-140.5 -117q46 -12 90.5 -38.5t85 -66t65.5 -99t25 -128.5q0 -104 -28.5 -180.5t-76.5 -124t-121 -76t-152 -39t-181 -10.5q-254 0 -469 10zM438 213q102 -8 230 -8q264 0 264 215q0 114 -73.5 162.5 t-229.5 48.5q-111 0 -191 -6v-412zM438 838q53 -2 185 -2q127 0 186 49t59 135q0 89 -60 135.5t-179 46.5q-92 0 -191 -6v-358z" />
<glyph unicode="C" horiz-adv-x="1437" d="M121 709q0 163 53.5 301.5t146.5 233t221.5 147.5t276.5 53q184 0 317 -62t238 -176l-200 -174q-43 53 -84.5 89t-111 63.5t-153.5 27.5q-125 0 -220 -65.5t-144 -178.5t-49 -257t49 -259.5t144 -184t220 -68.5q70 0 127.5 15t101.5 45t71 55t61 65l188 -164 q-221 -246 -555 -246q-148 0 -276 51.5t-221.5 145.5t-147 234t-53.5 309z" />
<glyph unicode="D" horiz-adv-x="1548" d="M176 0v1413q296 8 426 8q410 0 616.5 -182t206.5 -532t-207 -532.5t-616 -182.5q-130 0 -426 8zM451 240q90 -11 196 -11q226 0 359 122.5t133 355.5q0 232 -131.5 353.5t-360.5 121.5q-136 0 -196 -8v-934z" />
<glyph unicode="E" horiz-adv-x="1173" d="M176 0v1413h877v-235h-604v-328h483v-236h-483v-381h641v-233h-914z" />
<glyph unicode="F" horiz-adv-x="1126" d="M176 0v1413h875v-235h-602v-342h483v-236h-483v-600h-273z" />
<glyph unicode="G" horiz-adv-x="1536" d="M121 709q0 165 54 303.5t148 232.5t223 146.5t277 52.5q162 0 287.5 -47.5t230.5 -151.5l-178 -188q-59 71 -145.5 113t-194.5 42q-185 0 -298 -141.5t-113 -361.5q0 -244 122.5 -379t319.5 -135q140 0 264 51v254h-266v231h530v-643q-259 -119 -528 -119 q-125 0 -234.5 27.5t-201.5 86.5t-157.5 145t-102.5 208.5t-37 272.5z" />
<glyph unicode="H" horiz-adv-x="1511" d="M176 0v1413h277v-563h606v563h276v-1413h-276v608h-606v-608h-277z" />
<glyph unicode="I" horiz-adv-x="628" d="M176 0v1413h277v-1413h-277z" />
<glyph unicode="J" horiz-adv-x="1110" d="M45 203l201 149q49 -74 102 -115.5t129 -41.5q56 0 94.5 20t60 59.5t30 89t8.5 117.5v932h276v-899q0 -44 -1.5 -78t-6.5 -81t-14.5 -83t-26.5 -77.5t-40.5 -72.5t-59.5 -61.5t-81 -49.5t-105.5 -30.5t-133.5 -11.5q-136 0 -242 55t-190 179z" />
<glyph unicode="K" horiz-adv-x="1400" d="M176 0v1413h273v-612l548 612h324l-619 -684l695 -729h-338l-610 643v-643h-273z" />
<glyph unicode="L" horiz-adv-x="1056" d="M176 0v1413h273v-1180h534v-233h-807z" />
<glyph unicode="M" horiz-adv-x="1755" d="M176 0v1454h21l682 -856l682 856h18v-1454h-270v459q0 127 10 297q-88 -141 -184 -254l-248 -293h-19l-254 303q-44 52 -99 129.5t-77 118.5q8 -204 8 -295v-465h-270z" />
<glyph unicode="N" horiz-adv-x="1544" d="M176 0v1454h19l819 -799l90 -100l-6 127v731h270v-1454h-25l-827 821l-76 86l6 -104v-762h-270z" />
<glyph unicode="O" horiz-adv-x="1689" d="M121 709q0 218 94.5 386.5t258.5 258.5t370 90q207 0 371.5 -90t259 -258.5t94.5 -386.5q0 -164 -55 -303t-151.5 -234.5t-230 -149t-288.5 -53.5q-154 0 -287.5 53.5t-229.5 149t-151 234.5t-55 303zM412 709q0 -221 116.5 -365.5t315.5 -144.5q200 0 317 144t117 366 q0 221 -116.5 362t-317.5 141q-133 0 -232 -66t-149.5 -179.5t-50.5 -257.5z" />
<glyph unicode="P" horiz-adv-x="1271" d="M176 0v1413q145 4 449 4q267 0 411 -115t144 -348q0 -222 -139 -339t-392 -117q-108 0 -207 6v-504h-266zM438 727q65 -6 209 -6q119 0 193.5 57t74.5 176q0 234 -278 234q-133 0 -199 -8v-453z" />
<glyph unicode="Q" horiz-adv-x="1689" d="M121 709q0 218 94 386.5t258 258.5t371 90t371.5 -90t259 -258.5t94.5 -386.5q0 -281 -151 -474.5t-398 -246.5l190 -350h-313l-178 339q-266 39 -432 237t-166 495zM412 709q0 -228 116 -371t316 -143q201 0 317.5 143t116.5 371q0 221 -116.5 362t-317.5 141 q-133 0 -232 -66t-149.5 -179.5t-50.5 -257.5z" />
<glyph unicode="R" horiz-adv-x="1333" d="M176 0v1413q345 6 436 6q112 0 202.5 -22.5t150.5 -61t100.5 -92t58 -113t17.5 -126.5q0 -86 -17 -151.5t-52 -111.5t-72 -76t-93 -61l416 -604h-303l-377 553q-66 -4 -102 -4q-53 0 -103 6v-555h-262zM438 774q77 -10 176 -10q125 0 194 58.5t69 166.5q0 96 -62.5 153.5 t-191.5 57.5q-80 0 -185 -6v-420z" />
<glyph unicode="S" horiz-adv-x="1150" d="M35 242l188 143q20 -33 50 -65.5t71.5 -64.5t96.5 -51.5t112 -19.5q123 0 176 51.5t53 135.5q0 48 -20.5 86.5t-65.5 71t-82.5 52.5t-106.5 51q-6 3 -10.5 5t-9.5 4q-45 21 -73.5 35.5t-69 39t-66.5 46t-55 53.5t-45.5 65.5t-27.5 78t-11 94.5q0 180 129 285.5t328 105.5 q138 0 259 -54t200 -153l-172 -166q-46 68 -123.5 109t-161.5 41q-93 0 -146 -40t-53 -116q0 -32 9 -59.5t29 -50t39.5 -39.5t55 -34.5t60 -28.5t67.5 -28t61 -24.5t58.5 -26.5t59.5 -31t53 -35t51 -43t39.5 -50t33.5 -61.5t19 -72.5t8 -86q0 -89 -26.5 -161.5t-72 -121 t-108.5 -81.5t-133.5 -47.5t-148.5 -14.5q-323 0 -518 273z" />
<glyph unicode="T" horiz-adv-x="1191" d="M53 1178v235h1086v-235h-402v-1178h-272v1178h-412z" />
<glyph unicode="U" horiz-adv-x="1472" d="M166 625v788h274v-829q0 -65 6.5 -116.5t25.5 -103.5t51 -86t86.5 -55.5t127.5 -21.5t127 21.5t85.5 56t50 86.5t24.5 103t6 116v829h277v-788q0 -52 -1.5 -90.5t-7.5 -95t-17 -99t-31.5 -94.5t-49 -90t-72.5 -76t-98.5 -61.5t-130 -38.5t-164.5 -15t-164.5 15t-130 39 t-98 63t-71.5 77t-49 90.5t-31.5 94.5t-16.5 99t-7 94t-1 88z" />
<glyph unicode="V" horiz-adv-x="1435" d="M31 1413h303l307 -690l82 -213l82 215l301 688h299l-678 -1456h-20z" />
<glyph unicode="W" horiz-adv-x="2031" d="M63 1413h289l211 -641l53 -186l72 182l320 686h16l324 -690l73 -178l47 178l213 649h287l-493 -1456h-19l-387 821l-53 129l-51 -125l-390 -825h-18z" />
<glyph unicode="X" horiz-adv-x="1398" d="M31 0l491 752l-422 661h299l252 -385l64 -113l65 119l248 379h299l-434 -680l475 -733h-299l-307 465l-60 100l-61 -104l-311 -461h-299z" />
<glyph unicode="Y" horiz-adv-x="1320" d="M18 1413h299l297 -506l48 -92l49 94l295 504h294l-499 -835v-578h-279v569z" />
<glyph unicode="Z" horiz-adv-x="1204" d="M59 0v16l646 1158h-599v239h1010v-14l-637 -1159h635v-240h-1055z" />
<glyph unicode="[" horiz-adv-x="727" d="M135 -279v1756h514v-160h-287v-1436h287v-160h-514z" />
<glyph unicode="\" horiz-adv-x="837" d="M-8 1450h227l625 -1518h-228z" />
<glyph unicode="]" horiz-adv-x="727" d="M76 -119h286v1436h-286v160h514v-1756h-514v160z" />
<glyph unicode="^" horiz-adv-x="987" d="M29 797l465 641l464 -641h-233l-231 338l-232 -338h-233z" />
<glyph unicode="_" horiz-adv-x="970" d="M-29 -213h1030v-125h-1030v125z" />
<glyph unicode="`" horiz-adv-x="1044" d="M283 1405v18h340l139 -295h-162z" />
<glyph unicode="a" horiz-adv-x="1134" d="M92 285q0 85 36.5 149t98 99.5t131 52t146.5 16.5q95 0 213 -33v74q0 85 -51.5 122.5t-135.5 37.5q-75 0 -167.5 -27t-153.5 -61l-76 176q87 47 198.5 73.5t215.5 26.5q66 0 124 -10t115.5 -37t98.5 -69t66.5 -111.5t25.5 -159.5v-387q0 -111 33 -217h-260l-13 76 q-43 -30 -77 -48t-98 -34.5t-140 -16.5q-142 0 -236 79.5t-94 228.5zM350 287q0 -69 41 -110.5t121 -41.5q103 0 207 82v207q-101 27 -156 27q-95 0 -154 -39.5t-59 -124.5z" />
<glyph unicode="b" horiz-adv-x="1269" d="M133 0q25 186 25 338v1161h268v-633q55 58 131 91.5t162 33.5q215 0 330.5 -131t115.5 -379q0 -116 -37.5 -212t-100.5 -158t-143.5 -95.5t-168.5 -33.5q-181 0 -303 112l-21 -94h-258zM426 238q90 -76 219 -76q250 0 250 313q0 160 -62 238t-178 78q-128 0 -229 -97 v-456z" />
<glyph unicode="c" horiz-adv-x="1089" d="M104 481q0 153 71 270.5t190 178.5t264 61q236 0 397 -145l-129 -164q-106 106 -256 106q-121 0 -191.5 -76.5t-70.5 -230.5q0 -152 71.5 -229.5t190.5 -77.5q145 0 258 109l129 -164q-82 -72 -179 -110t-231 -38q-146 0 -261 57.5t-184 175t-69 277.5z" />
<glyph unicode="d" horiz-adv-x="1269" d="M104 494q0 118 38 214t103 157t148 93.5t176 32.5q167 0 279 -84v592h264v-1261q0 -116 33 -238h-260l-17 98q-130 -116 -313 -116q-217 0 -334 132.5t-117 379.5zM375 479q0 -317 241 -317q125 0 232 96v459q-98 74 -219 74q-254 0 -254 -312z" />
<glyph unicode="e" horiz-adv-x="1189" d="M104 492q0 215 145.5 357t360.5 142q100 0 185.5 -30.5t150.5 -89.5t102 -153t37 -214q0 -28 -4 -86l-702 -4q15 -248 276 -248q79 0 160 24.5t141 69.5l103 -166q-89 -60 -202.5 -91.5t-223.5 -31.5q-108 0 -202 32.5t-167.5 94.5t-116.5 163.5t-43 230.5zM379 575h450 q0 102 -59.5 169t-159.5 67q-99 0 -161 -66t-70 -170z" />
<glyph unicode="f" horiz-adv-x="849" d="M37 770v203h180v135q0 113 34.5 196t95.5 129t134 67.5t160 21.5q148 0 279 -70l-80 -180q-76 49 -166 49t-141.5 -50.5t-51.5 -152.5v-145h328v-203h-328v-770h-264v770h-180z" />
<glyph unicode="g" horiz-adv-x="1198" d="M39 -233q0 127 151 200q-61 30 -84.5 73t-23.5 103q0 49 26 91.5t62 70.5t94 62q-70 55 -105.5 118t-35.5 152q0 156 120.5 255t346.5 99q101 0 174 -18q97 137 254 137q76 0 172 -29l-45 -153q-34 22 -88 22q-38 0 -70 -19.5t-45 -53.5q119 -110 119 -240 q0 -161 -119.5 -263t-343.5 -102q-113 0 -184 29q-47 -15 -75 -42t-28 -60q0 -20 9.5 -34.5t32 -24t45.5 -15.5t66.5 -8.5t77.5 -3.5t93 -2q61 -1 107.5 -3.5t102 -10t96 -20t81 -34t65.5 -50.5t40.5 -72t15.5 -97q0 -64 -22 -115t-62 -86t-91 -60t-115 -39t-128 -20 t-135 -6q-117 0 -214.5 15.5t-174 47t-119.5 84.5t-43 122zM276 -205q0 -69 80.5 -101t257.5 -32q115 0 179 16t86 43.5t22 73.5q0 22 -8.5 39.5t-20 29t-33.5 19.5t-39.5 12.5t-46.5 7t-46.5 3t-49 1.5t-43.5 1q-55 3 -115 6l-90 4.5t-47 3.5q-86 -46 -86 -127zM375 637 q0 -96 55.5 -151.5t157.5 -55.5q103 0 160 56t57 151q0 89 -57.5 143t-159.5 54t-157.5 -53.5t-55.5 -143.5z" />
<glyph unicode="h" horiz-adv-x="1275" d="M158 0v1499h268v-629q50 50 126.5 85.5t172.5 35.5q60 0 112.5 -9.5t107 -35.5t93.5 -67.5t63.5 -112t24.5 -162.5v-604h-268v545q0 115 -43.5 171t-152.5 56q-125 0 -236 -96v-676h-268z" />
<glyph unicode="i" horiz-adv-x="585" d="M137 1282q0 63 45.5 107.5t110.5 44.5q63 0 108 -44.5t45 -107.5t-45 -107.5t-108 -44.5q-65 0 -110.5 44.5t-45.5 107.5zM158 0v973h268v-973h-268z" />
<glyph unicode="j" horiz-adv-x="583" d="M-213 -424l88 188q74 -53 164 -53q63 0 91 41t28 131v1090h268v-1090q0 -188 -90.5 -286.5t-243.5 -98.5q-166 0 -305 78zM135 1282q0 63 45.5 107.5t110.5 44.5q63 0 108 -44.5t45 -107.5t-45 -107.5t-108 -44.5q-65 0 -110.5 44.5t-45.5 107.5z" />
<glyph unicode="k" horiz-adv-x="1159" d="M158 0v1499h268v-895l373 369h323l-454 -461l479 -512h-330l-391 432v-432h-268z" />
<glyph unicode="l" horiz-adv-x="583" d="M158 0v1499h268v-1499h-268z" />
<glyph unicode="m" horiz-adv-x="1902" d="M158 0v973h258v-107q50 50 126.5 87.5t170.5 37.5q207 0 301 -143q147 143 334 143q60 0 115.5 -13.5t109.5 -45.5t93.5 -79.5t64 -121.5t24.5 -166v-565h-268v553q0 110 -42 163.5t-140 53.5q-63 0 -119.5 -28t-95.5 -72v-670h-269v553q0 110 -42 163.5t-140 53.5 q-117 0 -213 -92v-678h-268z" />
<glyph unicode="n" horiz-adv-x="1275" d="M158 0v973h254v-113q127 131 315 131q61 0 114 -10t107 -37t92 -69.5t62 -113.5t24 -163v-598h-268v553q0 109 -44.5 163t-145.5 54q-139 0 -242 -92v-678h-268z" />
<glyph unicode="o" horiz-adv-x="1282" d="M104 483q0 225 146 366.5t391 141.5t391 -141.5t146 -366.5q0 -223 -146.5 -367.5t-390.5 -144.5t-390.5 144.5t-146.5 367.5zM379 483q0 -144 66 -231.5t196 -87.5q131 0 196.5 87.5t65.5 231.5t-65 228t-197 84q-130 0 -196 -84t-66 -228z" />
<glyph unicode="p" horiz-adv-x="1269" d="M158 -500v1473h258v-111q135 129 303 129q96 0 171.5 -25.5t126.5 -71t84.5 -110t48.5 -139t15 -162.5q0 -115 -38 -212t-101 -159t-141.5 -96t-161.5 -34q-101 0 -168 22.5t-131 77.5v-582h-266zM424 238q97 -76 221 -76q116 0 182 76.5t66 238.5q0 160 -62 237t-176 77 q-125 0 -231 -95v-458z" />
<glyph unicode="q" horiz-adv-x="1269" d="M104 496q0 115 39 210.5t105 156.5t150.5 94.5t176.5 33.5q84 0 149.5 -24t133.5 -80l21 90h233v-1477h-264v580q-95 -98 -297 -98q-214 0 -330.5 133t-116.5 381zM375 481q0 -315 241 -315q132 0 232 100v436q-54 42 -103 63t-108 21q-262 0 -262 -305z" />
<glyph unicode="r" horiz-adv-x="872" d="M158 0v973h254v-133q80 151 243 151q101 0 191 -45l-90 -225q-66 39 -142 39q-108 0 -188 -111v-649h-268z" />
<glyph unicode="s" horiz-adv-x="972" d="M39 111l104 168q60 -53 149 -91t175 -38q180 0 180 104q0 36 -29.5 62t-77 42.5t-104.5 32t-114 38.5t-104.5 54t-77 85.5t-29.5 127.5q0 136 111.5 215.5t297.5 79.5q103 0 216 -40t165 -85l-113 -159q-40 33 -115 62.5t-153 29.5q-83 0 -120.5 -20.5t-37.5 -67.5 q0 -38 29.5 -64t77 -42t104.5 -31t114.5 -36.5t105 -51.5t77 -83.5t29.5 -126.5q0 -67 -23 -120t-62 -87.5t-94 -56.5t-116 -31.5t-131 -9.5q-121 0 -241 39.5t-193 100.5z" />
<glyph unicode="t" horiz-adv-x="872" d="M27 770v203h182q0 38 1 117t1 118l256 140q0 -145 -4 -375h325v-203h-325q-6 -345 -6 -401q0 -94 37 -141.5t104 -47.5q71 0 156 53l80 -184q-143 -78 -287 -78q-163 0 -261 95t-98 301q0 58 13 403h-174z" />
<glyph unicode="u" horiz-adv-x="1253" d="M147 377v596h269v-527q0 -132 42.5 -191.5t149.5 -59.5q129 0 219 116v662h269v-701q0 -130 30 -272h-270l-16 102q-57 -57 -130.5 -91t-189.5 -34q-53 0 -103.5 13t-100 43.5t-86.5 75t-60 114t-23 154.5z" />
<glyph unicode="v" horiz-adv-x="1193" d="M43 973h297l211 -471l45 -125l51 127l213 469h293l-551 -1034h-18z" />
<glyph unicode="w" horiz-adv-x="1656" d="M63 973h277l170 -447l35 -110l43 108l233 465h17l231 -463l45 -112l35 112l170 447h274l-424 -1030h-16l-289 518l-35 76l-36 -76l-287 -518h-19z" />
<glyph unicode="x" horiz-adv-x="1058" d="M18 0l359 508l-322 465h287l147 -221l48 -78l47 78l149 221h287l-336 -475l356 -498h-282l-178 256l-50 80l-51 -80l-176 -256h-285z" />
<glyph unicode="y" horiz-adv-x="1206" d="M10 -471l58 209q68 -33 129 -33t103.5 38.5t92.5 143.5l84 179l-424 907h295l219 -516l49 -135l46 133l210 518h291l-575 -1213q-122 -262 -369 -262q-101 0 -209 31z" />
<glyph unicode="z" horiz-adv-x="1042" d="M66 0v18l491 752h-453v203h863v-15l-496 -755h504v-203h-909z" />
<glyph unicode="{" horiz-adv-x="774" d="M41 506v186h27q82 0 126 49.5t44 126.5q0 51 -22.5 146.5t-22.5 175.5q0 59 17 107.5t55.5 90.5t110.5 65.5t171 23.5h149v-160h-92q-109 0 -151.5 -41t-42.5 -117q0 -53 26.5 -167.5t26.5 -166.5q0 -159 -156 -225q156 -66 156 -225q0 -53 -26.5 -168t-26.5 -168 q0 -75 42.5 -115.5t151.5 -40.5h92v-162h-149q-99 0 -171 23.5t-110.5 65.5t-55.5 90.5t-17 107.5q0 80 22.5 177t22.5 149q0 73 -43.5 122.5t-122.5 49.5h-31z" />
<glyph unicode="|" horiz-adv-x="966" d="M375 -504v2017h217v-2017h-217z" />
<glyph unicode="}" horiz-adv-x="774" d="M76 -117h94q109 0 150.5 40.5t41.5 115.5q0 53 -26.5 168t-26.5 168q0 158 158 225q-158 67 -158 225q0 52 26.5 166.5t26.5 167.5q0 77 -41.5 117.5t-150.5 40.5h-94v160h149q101 0 173 -23.5t111 -65.5t56 -90.5t17 -107.5q0 -80 -22.5 -175.5t-22.5 -146.5 q0 -77 44 -126.5t126 -49.5h26v-186h-31q-79 0 -122 -49.5t-43 -122.5q0 -52 22.5 -149t22.5 -177q0 -59 -17 -107.5t-56 -90.5t-111 -65.5t-173 -23.5h-149v162z" />
<glyph unicode="~" horiz-adv-x="987" d="M47 567q0 160 68 243t198 83q53 0 101 -18t78.5 -39.5t72 -39.5t82.5 -18q98 0 98 131h195q0 -163 -66.5 -249.5t-193.5 -86.5q-49 0 -98 18t-81.5 39.5t-74 39.5t-78.5 18q-102 0 -102 -121h-199z" />
<glyph unicode="&#xa1;" horiz-adv-x="587" d="M127 803q0 69 49 118.5t117 49.5q69 0 118.5 -49.5t49.5 -118.5q0 -67 -49.5 -115.5t-118.5 -48.5q-68 0 -117 48.5t-49 115.5zM141 -444l52 931h202l49 -931v-23h-303v23z" />
<glyph unicode="&#xa2;" d="M143 717q0 186 115.5 312t306.5 157v225h221v-223q183 -24 306 -131l-138 -166q-44 47 -114 75.5t-154 28.5q-127 0 -201.5 -71t-74.5 -205q0 -136 75.5 -208.5t200.5 -72.5q84 0 155 29t115 76l138 -164q-126 -110 -308 -135v-244h-221v244q-194 28 -308 151.5 t-114 321.5z" />
<glyph unicode="&#xa3;" d="M104 0v33q103 94 180.5 240t77.5 266q0 23 -4 69h-235v201h178q-26 57 -38 86.5t-25 82t-13 99.5q0 166 125 263.5t328 97.5q133 0 248.5 -54t193.5 -151l-172 -164q-100 148 -252 148q-86 0 -138 -45t-52 -128q0 -27 8 -58.5t16.5 -53t26 -62t25.5 -61.5h405v-201h-352 q2 -18 2 -53q0 -178 -94 -326h565v-229h-1004z" />
<glyph unicode="&#xa4;" d="M63 276l168 170q-86 117 -86 265q0 141 84 258l-166 170l125 125l172 -172q121 75 261 75q133 0 253 -73l175 170l125 -125l-166 -168q86 -123 86 -260q0 -146 -90 -267l170 -170l-125 -124l-179 174q-115 -70 -249 -70q-138 0 -256 70l-177 -174zM367 711 q0 -112 71 -188.5t180 -76.5t180.5 76.5t71.5 188.5q0 111 -71.5 187.5t-180.5 76.5t-180 -76t-71 -188z" />
<glyph unicode="&#xa5;" d="M57 1411h291l230 -469l40 -113l46 113l225 469h289l-230 -450h228v-160h-308l-102 -199h410v-160h-418v-442h-277v442h-418v160h406l-102 199h-304v160h226z" />
<glyph unicode="&#xa6;" horiz-adv-x="970" d="M375 303h217v-807h-217v807zM375 707v806h217v-806h-217z" />
<glyph unicode="&#xa7;" horiz-adv-x="1056" d="M49 -156l166 152q127 -195 309 -195q110 0 158.5 49.5t48.5 124.5q0 49 -34.5 85.5t-89.5 61t-122 47.5t-133.5 54t-121.5 71.5t-89.5 107.5t-34.5 155q0 156 164 268q-40 33 -63 61.5t-38 76t-15 112.5q0 161 112.5 261t300.5 100q77 0 146.5 -18t121.5 -49t89.5 -63 t66.5 -69l-164 -156q-106 148 -252 148q-91 0 -136.5 -39t-45.5 -100q0 -49 26 -85.5t68 -58.5t96 -43.5t110 -39.5t110 -48t96 -67t68 -99t26 -141q0 -90 -38 -162t-101 -115q109 -85 109 -235q0 -84 -25 -151.5t-67 -111.5t-99.5 -73t-118 -41t-127.5 -12q-148 0 -261 59 t-216 178zM334 565q0 -41 16.5 -75t41 -55.5t62 -41t68.5 -30t73 -25t64 -23.5q66 45 89.5 86t23.5 107q0 31 -10 56t-32.5 46t-46.5 36.5t-66.5 32.5t-75.5 28t-90 28q-117 -63 -117 -170z" />
<glyph unicode="&#xa8;" horiz-adv-x="1044" d="M121 1282q0 63 44.5 107.5t108.5 44.5t109 -44.5t45 -107.5t-45 -107.5t-109 -44.5t-108.5 44.5t-44.5 107.5zM616 1282q0 63 45.5 107.5t110.5 44.5q63 0 108.5 -44.5t45.5 -107.5t-45.5 -107.5t-108.5 -44.5q-65 0 -110.5 44.5t-45.5 107.5z" />
<glyph unicode="&#xa9;" horiz-adv-x="1875" d="M104 707q0 170 66 321t178 259t266 170.5t324 62.5t324.5 -63t267 -170.5t178.5 -258.5t66 -321t-66 -321.5t-178.5 -260t-267 -171.5t-324.5 -63t-324 63t-266 171.5t-178 260t-66 321.5zM178 707q0 -155 60 -294t161.5 -238t242 -156.5t296.5 -57.5t296.5 57.5 t242 156.5t161.5 238t60 294q0 207 -101.5 378.5t-276 269t-382.5 97.5t-382.5 -97.5t-276 -269t-101.5 -378.5zM438 715q0 221 146.5 360t361.5 139q231 0 391 -143l-131 -172q-100 111 -245 111q-117 0 -188 -77t-71 -218q0 -140 71.5 -216.5t184.5 -76.5q153 0 250 108 l131 -170q-162 -145 -401 -145q-218 0 -359 134t-141 366z" />
<glyph unicode="&#xaa;" horiz-adv-x="854" d="M94 950q0 61 26 106.5t69.5 70.5t92 37t101.5 12q62 0 149 -17v45q0 92 -135 92q-51 0 -114 -16.5t-105 -40.5l-59 137q118 66 291 66q47 0 87.5 -6t84.5 -23t74.5 -44.5t50.5 -75.5t20 -111v-275q0 -67 27 -159h-197l-8 55q-97 -72 -219 -72q-102 0 -169 57.5t-67 161.5 zM102 475v133h654v-133h-654zM285 952q0 -43 27.5 -71.5t80.5 -28.5q75 0 142 49v143q-62 17 -115 17q-60 0 -97.5 -26t-37.5 -83z" />
<glyph unicode="&#xab;" horiz-adv-x="1343" d="M61 430l388 444h256l-351 -444l351 -430h-256zM639 430l387 444h256l-350 -444l350 -430h-256z" />
<glyph unicode="&#xac;" d="M147 621v210h940v-210h-940zM864 305v518h223v-518h-223z" />
<glyph unicode="&#xad;" horiz-adv-x="919" d="M135 371v229h651v-229h-651z" />
<glyph unicode="&#xae;" horiz-adv-x="1169" d="M90 1038q0 201 144.5 335t351.5 134q135 0 247.5 -60t179 -168t66.5 -241t-66.5 -241.5t-179 -169t-247.5 -60.5t-248.5 60.5t-180.5 169t-67 241.5zM147 1038q0 -180 128 -301t311 -121t310.5 121t127.5 301q0 178 -127.5 298t-310.5 120t-311 -120t-128 -298zM371 786 v519q25 0 100 1t107 1q128 0 183.5 -45t55.5 -117q0 -53 -27.5 -82.5t-74.5 -50.5l159 -226h-169l-127 185h-33q-23 0 -31 2v-187h-143zM514 1075q28 -4 68 -4q82 0 82 74q0 65 -86 65q-35 0 -64 -2v-133z" />
<glyph unicode="&#xaf;" horiz-adv-x="1044" d="M143 1196v168h762v-168h-762z" />
<glyph unicode="&#xb0;" horiz-adv-x="923" d="M90 1094q0 155 104.5 251.5t264.5 96.5q163 0 267.5 -96.5t104.5 -251.5q0 -152 -105.5 -252.5t-266.5 -100.5q-158 0 -263.5 100.5t-105.5 252.5zM250 1094q0 -97 56.5 -161.5t152.5 -64.5q97 0 154 64.5t57 161.5q0 95 -57 157t-154 62q-96 0 -152.5 -62t-56.5 -157z " />
<glyph unicode="&#xb1;" d="M147 0v211h940v-211h-940zM147 674v213h351v309h237v-309h352v-213h-352v-303h-237v303h-351z" />
<glyph unicode="&#xb2;" horiz-adv-x="776" d="M49 1386q71 102 146.5 144.5t179.5 42.5q119 0 203 -69t84 -179q0 -54 -13.5 -101t-45 -91.5t-55.5 -71.5t-71 -74l-41 -41h256v-168h-639v23l41 39q186 177 273.5 288t87.5 187q0 92 -105 92q-36 0 -66.5 -14.5t-50 -37t-30.5 -40t-17 -33.5z" />
<glyph unicode="&#xb3;" horiz-adv-x="778" d="M49 893l113 121q17 -21 31 -35t38.5 -33.5t57 -30t69.5 -10.5q70 0 109 38t39 106q0 70 -43.5 102.5t-114.5 32.5q-86 0 -176 -58l-14 13l198 258h-231v159h571v-14l-215 -246q109 -23 162 -85t53 -169q0 -55 -20.5 -104.5t-59 -89.5t-101 -64t-140.5 -24 q-113 0 -189.5 34.5t-136.5 98.5z" />
<glyph unicode="&#xb4;" horiz-adv-x="1044" d="M283 1128l141 295h338v-18l-318 -277h-161z" />
<glyph unicode="&#xb5;" horiz-adv-x="1247" d="M147 -403v1376h265v-527q0 -132 43.5 -191.5t150.5 -59.5q127 0 221 116v662h265v-701q0 -137 32 -272h-270l-16 102q-30 -31 -48 -46.5t-52.5 -37.5t-78.5 -31.5t-100 -9.5q-47 0 -97 12t-75 29l19 -421h-259z" />
<glyph unicode="&#xb6;" horiz-adv-x="1380" d="M92 911q0 236 148.5 369t410.5 133h539v-1640h-158v1513h-217v-1513h-158v641q-273 0 -419 136.5t-146 360.5z" />
<glyph unicode="&#xb7;" horiz-adv-x="532" d="M92 479q0 73 52 124.5t124 51.5t123 -51.5t51 -124.5q0 -72 -51 -123t-123 -51t-124 51t-52 123z" />
<glyph unicode="&#xb8;" horiz-adv-x="1024" d="M291 -469l39 115q78 -33 145 -33q103 0 103 86t-115 86q-36 0 -86 -8l61 231h133l-39 -135h27q89 0 143 -43.5t54 -126.5q0 -105 -76 -156t-191 -51q-111 0 -198 35z" />
<glyph unicode="&#xb9;" horiz-adv-x="778" d="M92 778v150h219v418l-219 -52v168l410 113h10v-647h215v-150h-635z" />
<glyph unicode="&#xba;" horiz-adv-x="854" d="M68 1075q0 158 95.5 257.5t264.5 99.5t264.5 -99.5t95.5 -257.5q0 -156 -96 -256t-264 -100t-264 100t-96 256zM84 475v133h692v-133h-692zM264 1075q0 -93 40.5 -153t123.5 -60t123.5 60t40.5 153q0 92 -40 147.5t-124 55.5t-124 -55.5t-40 -147.5z" />
<glyph unicode="&#xbb;" horiz-adv-x="1343" d="M61 0l351 444l-351 430h256l388 -430l-388 -444h-256zM639 0l350 444l-350 430h256l387 -430l-387 -444h-256z" />
<glyph unicode="&#xbc;" horiz-adv-x="1759" d="M61 698v148h199v356l-199 -43v168l390 105h8v-586h196v-148h-594zM283 0l1067 1413h172l-1065 -1413h-174zM1036 123v18l258 586h213l-225 -465h152l49 176h139v-164h107v-151h-107v-123h-201v123h-385z" />
<glyph unicode="&#xbd;" horiz-adv-x="1759" d="M61 698v148h199v356l-199 -43v168l390 105h8v-586h196v-148h-594zM283 0l1067 1413h172l-1065 -1413h-174zM1077 0v20l187 187q5 5 28 27.5t32.5 32t30.5 32.5t31.5 37t26.5 35.5t23.5 38t13.5 36.5t6 37q0 38 -25.5 60t-68.5 22q-16 0 -31 -3t-26 -7t-24 -13t-20.5 -14 t-19 -17t-15.5 -16.5t-15 -18t-13 -15.5l-121 102q77 98 152.5 133t173.5 35q105 0 180.5 -65t75.5 -168q0 -63 -23.5 -116.5t-51.5 -86t-78 -80.5q-3 -2 -4 -3l-3 -3l-4 -4l-59 -58h270v-147h-629z" />
<glyph unicode="&#xbe;" horiz-adv-x="1759" d="M57 807l111 119q18 -22 29 -33t35 -30t54 -28.5t66 -9.5q64 0 99.5 32t35.5 91q0 119 -143 119q-86 0 -174 -57l-12 12l192 240h-248v151h547v-14l-170 -221q101 -23 149 -81t48 -155q0 -108 -80.5 -185t-228.5 -77q-197 0 -310 127zM283 0l1067 1413h172l-1065 -1413 h-174zM1036 123v18l258 586h213l-225 -465h152l49 176h139v-164h107v-151h-107v-123h-201v123h-385z" />
<glyph unicode="&#xbf;" horiz-adv-x="911" d="M70 -150q0 75 25.5 138t63.5 102.5t83 77.5t83 67t63.5 68.5t25.5 83.5q0 45 -19 100h238q18 -63 18 -106q0 -50 -18.5 -96t-48 -80.5t-65 -67t-71 -62t-65 -58.5t-48 -63.5t-18.5 -70.5q0 -72 42.5 -115.5t129.5 -43.5q129 0 240 133l154 -152q-99 -105 -198.5 -151 t-244.5 -46q-162 0 -266 98t-104 244zM354 805q0 67 49 116.5t117 49.5t118 -49.5t50 -116.5q0 -68 -50 -117t-118 -49t-117 48.5t-49 117.5z" />
<glyph unicode="&#xc0;" horiz-adv-x="1480" d="M31 0l702 1462h17l700 -1462h-305l-111 248h-600l-104 -248h-299zM303 1712v14h428l238 -196v-8h-242zM524 467h412l-195 465z" />
<glyph unicode="&#xc1;" horiz-adv-x="1480" d="M31 0l702 1462h17l700 -1462h-305l-111 248h-600l-104 -248h-299zM489 1522v8l238 199h428v-15l-424 -192h-242zM524 467h412l-195 465z" />
<glyph unicode="&#xc2;" horiz-adv-x="1480" d="M31 0l702 1462h17l700 -1462h-305l-111 248h-600l-104 -248h-299zM328 1522l264 209h299l264 -209h-274l-140 104l-141 -104h-272zM524 467h412l-195 465z" />
<glyph unicode="&#xc3;" horiz-adv-x="1480" d="M31 0l702 1462h17l700 -1462h-305l-111 248h-600l-104 -248h-299zM328 1522q0 123 70 185t184 62q55 0 113 -23t109 -46t91 -23q102 0 102 109h158q0 -126 -69 -192t-181 -66q-53 0 -111.5 23.5t-110.5 47t-89 23.5q-107 0 -107 -100h-159zM524 467h412l-195 465z" />
<glyph unicode="&#xc4;" horiz-adv-x="1480" d="M31 0l702 1462h17l700 -1462h-305l-111 248h-600l-104 -248h-299zM336 1663q0 61 44 100t109 39q63 0 106.5 -39.5t43.5 -99.5q0 -59 -44 -100t-106 -41q-65 0 -109 40.5t-44 100.5zM524 467h412l-195 465zM844 1663q0 61 43.5 100t107.5 39t107 -39t43 -100 q0 -60 -43.5 -100.5t-106.5 -40.5t-107 40.5t-44 100.5z" />
<glyph unicode="&#xc5;" horiz-adv-x="1480" d="M31 0l702 1462h17l700 -1462h-305l-111 248h-600l-104 -248h-299zM498 1735q0 96 70.5 157.5t172.5 61.5t173 -61.5t71 -157.5q0 -93 -71.5 -155t-172.5 -62t-172 62t-71 155zM524 467h412l-195 465zM618 1735q0 -52 35 -84.5t88 -32.5q54 0 87.5 32.5t33.5 84.5 q0 53 -33 83.5t-88 30.5q-54 0 -88.5 -30.5t-34.5 -83.5z" />
<glyph unicode="&#xc6;" horiz-adv-x="1820" d="M31 0l641 1413h876v-235h-667l141 -330h487v-236h-383l164 -379h494v-233h-682l-109 248h-551l-102 -248h-309zM512 465h399l-200 491h-9z" />
<glyph unicode="&#xc7;" horiz-adv-x="1437" d="M121 709q0 163 53.5 301.5t146.5 233t221.5 147.5t276.5 53q184 0 317 -62t238 -176l-200 -174q-43 53 -84.5 89t-111 63.5t-153.5 27.5q-125 0 -220 -65.5t-144 -178.5t-49 -257t49 -259.5t144 -184t220 -68.5q70 0 127.5 15t101.5 45t71 55t61 65l188 -164 q-206 -224 -491 -242l-29 -100h27q88 0 142 -43.5t54 -126.5q0 -105 -75.5 -156t-188.5 -51q-114 0 -201 35l39 115q78 -33 146 -33q102 0 102 86t-113 86q-40 0 -86 -8l50 196q-136 11 -251 67t-199 149t-131.5 226.5t-47.5 293.5z" />
<glyph unicode="&#xc8;" horiz-adv-x="1173" d="M147 1712v14h428l238 -196v-8h-242zM176 0v1413h877v-235h-604v-328h483v-236h-483v-381h641v-233h-914z" />
<glyph unicode="&#xc9;" horiz-adv-x="1173" d="M176 0v1413h877v-235h-604v-328h483v-236h-483v-381h641v-233h-914zM397 1522v8l238 199h428v-15l-424 -192h-242z" />
<glyph unicode="&#xca;" horiz-adv-x="1173" d="M176 0v1413h877v-235h-604v-328h483v-236h-483v-381h641v-233h-914zM203 1522l264 209h299l264 -209h-274l-140 104l-141 -104h-272z" />
<glyph unicode="&#xcb;" horiz-adv-x="1173" d="M176 0v1413h877v-235h-604v-328h483v-236h-483v-381h641v-233h-914zM211 1663q0 61 44.5 100t109.5 39q63 0 106 -39t43 -100q0 -60 -43.5 -100.5t-105.5 -40.5q-65 0 -109.5 40.5t-44.5 100.5zM719 1663q0 61 43.5 100t107.5 39t107 -39t43 -100q0 -60 -43.5 -100.5 t-106.5 -40.5t-107 40.5t-44 100.5z" />
<glyph unicode="&#xcc;" horiz-adv-x="628" d="M-152 1712v14h428l238 -196v-8h-242zM176 0v1413h277v-1413h-277z" />
<glyph unicode="&#xcd;" horiz-adv-x="628" d="M104 1522v8l238 199h428v-15l-424 -192h-242zM176 0v1413h277v-1413h-277z" />
<glyph unicode="&#xce;" horiz-adv-x="628" d="M-98 1522l264 209h299l264 -209h-274l-140 104l-141 -104h-272zM176 0v1413h277v-1413h-277z" />
<glyph unicode="&#xcf;" horiz-adv-x="628" d="M-90 1663q0 61 44 100t109 39q63 0 106.5 -39.5t43.5 -99.5q0 -59 -44 -100t-106 -41q-65 0 -109 40.5t-44 100.5zM176 0v1413h277v-1413h-277zM418 1663q0 61 43.5 100t107.5 39t107 -39t43 -100q0 -60 -43.5 -100.5t-106.5 -40.5t-107 40.5t-44 100.5z" />
<glyph unicode="&#xd0;" horiz-adv-x="1548" d="M18 612v232h158v569q304 8 426 8q410 0 616.5 -182t206.5 -532t-207 -532.5t-616 -182.5q-122 0 -426 8v612h-158zM451 240q90 -11 196 -11q226 0 359 122.5t133 355.5q0 232 -131.5 353.5t-360.5 121.5q-136 0 -196 -8v-330h323v-232h-323v-372z" />
<glyph unicode="&#xd1;" horiz-adv-x="1544" d="M176 0v1454h19l819 -799l90 -100l-6 127v731h270v-1454h-25l-827 821l-76 86l6 -104v-762h-270zM362 1522q0 123 70 185t184 62q55 0 113 -23t109.5 -46t91.5 -23q102 0 102 109h158q0 -126 -69 -192t-181 -66q-53 0 -111.5 23.5t-110.5 47t-89 23.5q-107 0 -107 -100 h-160z" />
<glyph unicode="&#xd2;" horiz-adv-x="1689" d="M121 709q0 218 94.5 386.5t258.5 258.5t370 90q207 0 371.5 -90t259 -258.5t94.5 -386.5q0 -164 -55 -303t-151.5 -234.5t-230 -149t-288.5 -53.5q-154 0 -287.5 53.5t-229.5 149t-151 234.5t-55 303zM412 709q0 -221 116.5 -365.5t315.5 -144.5q200 0 317 144t117 366 q0 221 -116.5 362t-317.5 141q-133 0 -232 -66t-149.5 -179.5t-50.5 -257.5zM422 1731v14h428l237 -197v-8h-241z" />
<glyph unicode="&#xd3;" horiz-adv-x="1689" d="M121 709q0 218 94.5 386.5t258.5 258.5t370 90q207 0 371.5 -90t259 -258.5t94.5 -386.5q0 -164 -55 -303t-151.5 -234.5t-230 -149t-288.5 -53.5q-154 0 -287.5 53.5t-229.5 149t-151 234.5t-55 303zM412 709q0 -221 116.5 -365.5t315.5 -144.5q200 0 317 144t117 366 q0 221 -116.5 362t-317.5 141q-133 0 -232 -66t-149.5 -179.5t-50.5 -257.5zM594 1540v8l237 199h429v-14l-424 -193h-242z" />
<glyph unicode="&#xd4;" horiz-adv-x="1689" d="M121 709q0 218 94.5 386.5t258.5 258.5t370 90q207 0 371.5 -90t259 -258.5t94.5 -386.5q0 -164 -55 -303t-151.5 -234.5t-230 -149t-288.5 -53.5q-154 0 -287.5 53.5t-229.5 149t-151 234.5t-55 303zM412 709q0 -221 116.5 -365.5t315.5 -144.5q200 0 317 144t117 366 q0 221 -116.5 362t-317.5 141q-133 0 -232 -66t-149.5 -179.5t-50.5 -257.5zM432 1522l264 209h299l265 -209h-275l-139 104l-141 -104h-273z" />
<glyph unicode="&#xd5;" horiz-adv-x="1689" d="M121 709q0 218 94.5 386.5t258.5 258.5t370 90q207 0 371.5 -90t259 -258.5t94.5 -386.5q0 -164 -55 -303t-151.5 -234.5t-230 -149t-288.5 -53.5q-154 0 -287.5 53.5t-229.5 149t-151 234.5t-55 303zM412 709q0 -221 116.5 -365.5t315.5 -144.5q200 0 317 144t117 366 q0 221 -116.5 362t-317.5 141q-133 0 -232 -66t-149.5 -179.5t-50.5 -257.5zM430 1522q0 123 70 185t184 62q55 0 113 -23t109 -46t91 -23q103 0 103 109h157q0 -126 -68.5 -192t-180.5 -66q-53 0 -111.5 23.5t-111 47t-89.5 23.5q-106 0 -106 -100h-160z" />
<glyph unicode="&#xd6;" horiz-adv-x="1689" d="M121 709q0 218 94.5 386.5t258.5 258.5t370 90q207 0 371.5 -90t259 -258.5t94.5 -386.5q0 -164 -55 -303t-151.5 -234.5t-230 -149t-288.5 -53.5q-154 0 -287.5 53.5t-229.5 149t-151 234.5t-55 303zM412 709q0 -221 116.5 -365.5t315.5 -144.5q200 0 317 144t117 366 q0 221 -116.5 362t-317.5 141q-133 0 -232 -66t-149.5 -179.5t-50.5 -257.5zM440 1663q0 61 44.5 100t109.5 39q63 0 106 -39t43 -100q0 -60 -43.5 -100.5t-105.5 -40.5q-65 0 -109.5 40.5t-44.5 100.5zM948 1663q0 61 44 100t108 39t106.5 -39t42.5 -100q0 -60 -43 -100.5 t-106 -40.5t-107.5 40.5t-44.5 100.5z" />
<glyph unicode="&#xd7;" d="M162 434l299 301l-299 297l155 160l299 -301l299 301l160 -156l-301 -301l301 -297l-155 -159l-302 299l-296 -299z" />
<glyph unicode="&#xd8;" horiz-adv-x="1689" d="M121 711q0 218 94.5 386t258.5 257.5t370 89.5q200 0 364 -88l152 192l201 -149l-158 -199q166 -200 166 -489q0 -164 -55 -303.5t-151.5 -235.5t-230 -149.5t-288.5 -53.5q-194 0 -355 82l-135 -170l-190 154l133 168q-176 201 -176 508zM412 711q0 -166 61 -285 l578 731q-93 49 -207 49q-200 0 -316 -137.5t-116 -357.5zM647 248q85 -45 197 -45q134 0 234 67.5t151 182t51 258.5q0 147 -57 264z" />
<glyph unicode="&#xd9;" horiz-adv-x="1472" d="M166 625v788h274v-829q0 -65 6.5 -116.5t25.5 -103.5t51 -86t86.5 -55.5t127.5 -21.5t127 21.5t85.5 56t50 86.5t24.5 103t6 116v829h277v-788q0 -52 -1.5 -90.5t-7.5 -95t-17 -99t-31.5 -94.5t-49 -90t-72.5 -76t-98.5 -61.5t-130 -38.5t-164.5 -15t-164.5 15t-130 39 t-98 63t-71.5 77t-49 90.5t-31.5 94.5t-16.5 99t-7 94t-1 88zM272 1712v14h428l238 -196v-8h-242z" />
<glyph unicode="&#xda;" horiz-adv-x="1472" d="M166 625v788h274v-829q0 -65 6.5 -116.5t25.5 -103.5t51 -86t86.5 -55.5t127.5 -21.5t127 21.5t85.5 56t50 86.5t24.5 103t6 116v829h277v-788q0 -52 -1.5 -90.5t-7.5 -95t-17 -99t-31.5 -94.5t-49 -90t-72.5 -76t-98.5 -61.5t-130 -38.5t-164.5 -15t-164.5 15t-130 39 t-98 63t-71.5 77t-49 90.5t-31.5 94.5t-16.5 99t-7 94t-1 88zM504 1522v8l237 199h428v-15l-424 -192h-241z" />
<glyph unicode="&#xdb;" horiz-adv-x="1472" d="M166 625v788h274v-829q0 -65 6.5 -116.5t25.5 -103.5t51 -86t86.5 -55.5t127.5 -21.5t127 21.5t85.5 56t50 86.5t24.5 103t6 116v829h277v-788q0 -52 -1.5 -90.5t-7.5 -95t-17 -99t-31.5 -94.5t-49 -90t-72.5 -76t-98.5 -61.5t-130 -38.5t-164.5 -15t-164.5 15t-130 39 t-98 63t-71.5 77t-49 90.5t-31.5 94.5t-16.5 99t-7 94t-1 88zM322 1522l264 209h299l264 -209h-275l-139 104l-141 -104h-272z" />
<glyph unicode="&#xdc;" horiz-adv-x="1472" d="M166 625v788h274v-829q0 -65 6.5 -116.5t25.5 -103.5t51 -86t86.5 -55.5t127.5 -21.5t127 21.5t85.5 56t50 86.5t24.5 103t6 116v829h277v-788q0 -52 -1.5 -90.5t-7.5 -95t-17 -99t-31.5 -94.5t-49 -90t-72.5 -76t-98.5 -61.5t-130 -38.5t-164.5 -15t-164.5 15t-130 39 t-98 63t-71.5 77t-49 90.5t-31.5 94.5t-16.5 99t-7 94t-1 88zM330 1663q0 61 44 100t109 39q63 0 106.5 -39.5t43.5 -99.5q0 -59 -44 -100t-106 -41q-65 0 -109 40.5t-44 100.5zM838 1663q0 61 43.5 100t107.5 39t107 -39t43 -100q0 -60 -43.5 -100.5t-106.5 -40.5 t-107 40.5t-44 100.5z" />
<glyph unicode="&#xdd;" horiz-adv-x="1320" d="M18 1413h299l297 -506l48 -92l49 94l295 504h294l-499 -835v-578h-279v569zM449 1522v8l237 199h428v-15l-424 -192h-241z" />
<glyph unicode="&#xde;" horiz-adv-x="1234" d="M174 0v1413h279v-244q57 2 170 2q267 0 411 -115.5t144 -348.5q0 -221 -139 -339t-392 -118q-119 0 -207 8v-258h-266zM436 481q90 -8 209 -8q117 0 193.5 60t76.5 174q0 233 -280 233q-147 0 -199 -6v-453z" />
<glyph unicode="&#xdf;" horiz-adv-x="1302" d="M158 0v1036q0 108 26 192t70 138.5t107 90t133.5 50.5t152.5 15q113 0 202 -34t139.5 -87t76 -109.5t25.5 -109.5q0 -60 -19 -111.5t-45.5 -86.5t-53.5 -65.5t-46 -62t-19 -61.5q0 -39 17.5 -73.5t46 -61.5t62.5 -53.5t68 -56.5t62.5 -63.5t46 -82t17.5 -105.5 q0 -161 -101.5 -244.5t-263.5 -83.5q-176 0 -315 92l92 175q97 -80 197 -80q65 0 104 36t39 91q0 43 -24.5 81.5t-61.5 66.5t-80 62t-80 67.5t-61.5 85t-24.5 112.5q0 46 17.5 90t42.5 79t50 68.5t42.5 72t17.5 77.5q0 76 -44 124t-144 48q-93 0 -151 -63.5t-58 -206.5 v-1049h-262z" />
<glyph unicode="&#xe0;" horiz-adv-x="1134" d="M92 285q0 85 36.5 149t98 99.5t131 52t146.5 16.5q95 0 213 -33v74q0 85 -51.5 122.5t-135.5 37.5q-75 0 -167.5 -27t-153.5 -61l-76 176q87 47 198.5 73.5t215.5 26.5q66 0 124 -10t115.5 -37t98.5 -69t66.5 -111.5t25.5 -159.5v-387q0 -111 33 -217h-260l-13 76 q-43 -30 -77 -48t-98 -34.5t-140 -16.5q-142 0 -236 79.5t-94 228.5zM205 1405v18h340l139 -295h-162zM350 287q0 -69 41 -110.5t121 -41.5q103 0 207 82v207q-101 27 -156 27q-95 0 -154 -39.5t-59 -124.5z" />
<glyph unicode="&#xe1;" horiz-adv-x="1134" d="M92 285q0 85 36.5 149t98 99.5t131 52t146.5 16.5q95 0 213 -33v74q0 85 -51.5 122.5t-135.5 37.5q-75 0 -167.5 -27t-153.5 -61l-76 176q87 47 198.5 73.5t215.5 26.5q66 0 124 -10t115.5 -37t98.5 -69t66.5 -111.5t25.5 -159.5v-387q0 -111 33 -217h-260l-13 76 q-43 -30 -77 -48t-98 -34.5t-140 -16.5q-142 0 -236 79.5t-94 228.5zM350 287q0 -69 41 -110.5t121 -41.5q103 0 207 82v207q-101 27 -156 27q-95 0 -154 -39.5t-59 -124.5zM416 1128l141 295h338v-18l-317 -277h-162z" />
<glyph unicode="&#xe2;" horiz-adv-x="1134" d="M92 285q0 85 36.5 149t98 99.5t131 52t146.5 16.5q95 0 213 -33v74q0 85 -51.5 122.5t-135.5 37.5q-75 0 -167.5 -27t-153.5 -61l-76 176q87 47 198.5 73.5t215.5 26.5q66 0 124 -10t115.5 -37t98.5 -69t66.5 -111.5t25.5 -159.5v-387q0 -111 33 -217h-260l-13 76 q-43 -30 -77 -48t-98 -34.5t-140 -16.5q-142 0 -236 79.5t-94 228.5zM145 1122l340 320h142l340 -320h-260l-152 160l-149 -160h-261zM350 287q0 -69 41 -110.5t121 -41.5q103 0 207 82v207q-101 27 -156 27q-95 0 -154 -39.5t-59 -124.5z" />
<glyph unicode="&#xe3;" horiz-adv-x="1134" d="M92 285q0 85 36.5 149t98 99.5t131 52t146.5 16.5q95 0 213 -33v74q0 85 -51.5 122.5t-135.5 37.5q-75 0 -167.5 -27t-153.5 -61l-76 176q87 47 198.5 73.5t215.5 26.5q66 0 124 -10t115.5 -37t98.5 -69t66.5 -111.5t25.5 -159.5v-387q0 -111 33 -217h-260l-13 76 q-43 -30 -77 -48t-98 -34.5t-140 -16.5q-142 0 -236 79.5t-94 228.5zM141 1130q0 135 69 214t179 79q57 0 118 -29t114.5 -58t93.5 -29q86 0 86 133h180q0 -136 -68.5 -219.5t-177.5 -83.5q-42 0 -89.5 18t-82.5 40t-76.5 40t-72.5 18q-88 0 -88 -123h-185zM350 287 q0 -69 41 -110.5t121 -41.5q103 0 207 82v207q-101 27 -156 27q-95 0 -154 -39.5t-59 -124.5z" />
<glyph unicode="&#xe4;" horiz-adv-x="1134" d="M92 285q0 85 36.5 149t98 99.5t131 52t146.5 16.5q95 0 213 -33v74q0 85 -51.5 122.5t-135.5 37.5q-75 0 -167.5 -27t-153.5 -61l-76 176q87 47 198.5 73.5t215.5 26.5q66 0 124 -10t115.5 -37t98.5 -69t66.5 -111.5t25.5 -159.5v-387q0 -111 33 -217h-260l-13 76 q-43 -30 -77 -48t-98 -34.5t-140 -16.5q-142 0 -236 79.5t-94 228.5zM158 1282q0 63 44.5 107.5t108.5 44.5t109 -44.5t45 -107.5t-45 -107.5t-109 -44.5t-108.5 44.5t-44.5 107.5zM350 287q0 -69 41 -110.5t121 -41.5q103 0 207 82v207q-101 27 -156 27q-95 0 -154 -39.5 t-59 -124.5zM653 1282q0 63 45.5 107.5t110.5 44.5q63 0 108.5 -44.5t45.5 -107.5t-45.5 -107.5t-108.5 -44.5q-65 0 -110.5 44.5t-45.5 107.5z" />
<glyph unicode="&#xe5;" horiz-adv-x="1134" d="M92 285q0 85 36.5 149t98 99.5t131 52t146.5 16.5q95 0 213 -33v74q0 85 -51.5 122.5t-135.5 37.5q-75 0 -167.5 -27t-153.5 -61l-76 176q87 47 198.5 73.5t215.5 26.5q66 0 124 -10t115.5 -37t98.5 -69t66.5 -111.5t25.5 -159.5v-387q0 -111 33 -217h-260l-13 76 q-43 -30 -77 -48t-98 -34.5t-140 -16.5q-142 0 -236 79.5t-94 228.5zM322 1327q0 99 70.5 165.5t172.5 66.5q103 0 173.5 -66.5t70.5 -165.5q0 -98 -70.5 -165.5t-173.5 -67.5q-102 0 -172.5 67.5t-70.5 165.5zM350 287q0 -69 41 -110.5t121 -41.5q103 0 207 82v207 q-101 27 -156 27q-95 0 -154 -39.5t-59 -124.5zM442 1327q0 -54 34.5 -88.5t88.5 -34.5q55 0 89 34.5t34 88.5q0 55 -33.5 88t-89.5 33q-55 0 -89 -33t-34 -88z" />
<glyph unicode="&#xe6;" horiz-adv-x="1720" d="M92 295q0 85 37 147t100.5 95.5t136 49t156.5 15.5q52 0 176 -27q6 84 15 113q-19 70 -64.5 96.5t-126.5 26.5q-74 0 -162 -27t-149 -63l-76 172q86 47 193.5 73.5t210.5 26.5q220 0 321 -114q127 114 305 114q207 0 329 -118.5t122 -354.5q0 -48 -8 -102h-674 q10 -125 82 -191.5t182 -66.5q168 0 301 96l90 -160q-178 -125 -418 -125q-190 0 -327 123q-165 -117 -398 -117q-151 0 -252.5 83.5t-101.5 234.5zM342 287q0 -57 42.5 -100.5t117.5 -43.5q140 0 243 74q-47 94 -47 207q-67 22 -139 22q-46 0 -82 -6.5t-68 -23.5 t-49.5 -49.5t-17.5 -79.5zM950 573h432q-2 102 -58.5 170t-154.5 68q-99 0 -156.5 -68.5t-62.5 -169.5z" />
<glyph unicode="&#xe7;" horiz-adv-x="1085" d="M104 481q0 150 70 267.5t188.5 180t262.5 62.5q236 0 397 -145l-129 -164q-106 106 -256 106q-121 0 -191.5 -76.5t-70.5 -230.5q0 -152 71.5 -229.5t190.5 -77.5q145 0 258 109l129 -164q-150 -131 -354 -146l-27 -94h25q83 0 134.5 -41.5t51.5 -120.5q0 -99 -72 -147.5 t-180 -48.5q-101 0 -188 33l35 108q80 -31 137 -31q98 0 98 82t-106 82q-22 0 -82 -6l49 186q-196 21 -318.5 155t-122.5 351z" />
<glyph unicode="&#xe8;" horiz-adv-x="1189" d="M104 492q0 215 145.5 357t360.5 142q100 0 185.5 -30.5t150.5 -89.5t102 -153t37 -214q0 -28 -4 -86l-702 -4q15 -248 276 -248q79 0 160 24.5t141 69.5l103 -166q-89 -60 -202.5 -91.5t-223.5 -31.5q-108 0 -202 32.5t-167.5 94.5t-116.5 163.5t-43 230.5zM254 1405v18 h340l139 -295h-162zM379 575h450q0 102 -59.5 169t-159.5 67q-99 0 -161 -66t-70 -170z" />
<glyph unicode="&#xe9;" horiz-adv-x="1189" d="M104 492q0 215 145.5 357t360.5 142q100 0 185.5 -30.5t150.5 -89.5t102 -153t37 -214q0 -28 -4 -86l-702 -4q15 -248 276 -248q79 0 160 24.5t141 69.5l103 -166q-89 -60 -202.5 -91.5t-223.5 -31.5q-108 0 -202 32.5t-167.5 94.5t-116.5 163.5t-43 230.5zM379 575h450 q0 102 -59.5 169t-159.5 67q-99 0 -161 -66t-70 -170zM473 1128l141 295h338v-18l-317 -277h-162z" />
<glyph unicode="&#xea;" horiz-adv-x="1189" d="M104 492q0 215 145.5 357t360.5 142q100 0 185.5 -30.5t150.5 -89.5t102 -153t37 -214q0 -28 -4 -86l-702 -4q15 -248 276 -248q79 0 160 24.5t141 69.5l103 -166q-89 -60 -202.5 -91.5t-223.5 -31.5q-108 0 -202 32.5t-167.5 94.5t-116.5 163.5t-43 230.5zM197 1122 l340 320h141l340 -320h-260l-152 160l-149 -160h-260zM379 575h450q0 102 -59.5 169t-159.5 67q-99 0 -161 -66t-70 -170z" />
<glyph unicode="&#xeb;" horiz-adv-x="1189" d="M104 492q0 215 145.5 357t360.5 142q100 0 185.5 -30.5t150.5 -89.5t102 -153t37 -214q0 -28 -4 -86l-702 -4q15 -248 276 -248q79 0 160 24.5t141 69.5l103 -166q-89 -60 -202.5 -91.5t-223.5 -31.5q-108 0 -202 32.5t-167.5 94.5t-116.5 163.5t-43 230.5zM217 1282 q0 63 45 107.5t109 44.5t108.5 -44.5t44.5 -107.5t-44.5 -107.5t-108.5 -44.5t-109 44.5t-45 107.5zM379 575h450q0 102 -59.5 169t-159.5 67q-99 0 -161 -66t-70 -170zM713 1282q0 63 45.5 107.5t109.5 44.5q63 0 108.5 -44.5t45.5 -107.5t-45.5 -107.5t-108.5 -44.5 q-64 0 -109.5 44.5t-45.5 107.5z" />
<glyph unicode="&#xec;" horiz-adv-x="583" d="M-8 1405v18h340l139 -295h-162zM158 0v973h268v-973h-268z" />
<glyph unicode="&#xed;" horiz-adv-x="583" d="M139 1128l142 295h337v-18l-317 -277h-162zM158 0v973h268v-973h-268z" />
<glyph unicode="&#xee;" horiz-adv-x="583" d="M-74 1122l279 320h182l279 -320h-248l-123 160l-121 -160h-248zM158 0v973h268v-973h-268z" />
<glyph unicode="&#xef;" horiz-adv-x="583" d="M-84 1282q0 63 45 107.5t109 44.5t108.5 -44.5t44.5 -107.5t-44.5 -107.5t-108.5 -44.5t-109 44.5t-45 107.5zM158 0v973h268v-973h-268zM358 1282q0 63 45.5 107.5t110.5 44.5q63 0 108.5 -44.5t45.5 -107.5t-45.5 -107.5t-108.5 -44.5q-65 0 -110.5 44.5t-45.5 107.5z " />
<glyph unicode="&#xf0;" horiz-adv-x="1280" d="M104 481q0 214 136 351t333 137q151 0 252 -74q15 -10 66 -70q-5 13 -17.5 43t-15.5 39q-48 134 -156 277l-276 -121l-72 154l230 100q-146 146 -289 213h276q105 -48 205 -129l209 92l72 -154l-152 -67q127 -150 199 -341t72 -399q0 -118 -32.5 -218.5t-97 -177.5 t-169.5 -121t-240 -44q-243 0 -388 144.5t-145 365.5zM375 475q0 -139 66.5 -225t195.5 -86q130 0 195 85.5t65 225.5q0 139 -64 218t-196 79q-131 0 -196.5 -79.5t-65.5 -217.5z" />
<glyph unicode="&#xf1;" horiz-adv-x="1275" d="M158 0v973h254v-113q127 131 315 131q61 0 114 -10t107 -37t92 -69.5t62 -113.5t24 -163v-598h-268v553q0 109 -44.5 163t-145.5 54q-139 0 -242 -92v-678h-268zM231 1130q0 135 69 214t179 79q57 0 118 -29t114.5 -58t93.5 -29q86 0 86 133h180q0 -136 -68.5 -219.5 t-177.5 -83.5q-42 0 -89.5 18t-82.5 40t-76.5 40t-72.5 18q-88 0 -88 -123h-185z" />
<glyph unicode="&#xf2;" horiz-adv-x="1282" d="M104 483q0 225 146 366.5t391 141.5t391 -141.5t146 -366.5q0 -223 -146.5 -367.5t-390.5 -144.5t-390.5 144.5t-146.5 367.5zM315 1405v18h340l140 -295h-162zM379 483q0 -144 66 -231.5t196 -87.5q131 0 196.5 87.5t65.5 231.5t-65 228t-197 84q-130 0 -196 -84 t-66 -228z" />
<glyph unicode="&#xf3;" horiz-adv-x="1282" d="M104 483q0 225 146 366.5t391 141.5t391 -141.5t146 -366.5q0 -223 -146.5 -367.5t-390.5 -144.5t-390.5 144.5t-146.5 367.5zM379 483q0 -144 66 -231.5t196 -87.5q131 0 196.5 87.5t65.5 231.5t-65 228t-197 84q-130 0 -196 -84t-66 -228zM473 1128l141 295h338v-18 l-317 -277h-162z" />
<glyph unicode="&#xf4;" horiz-adv-x="1282" d="M104 483q0 225 146 366.5t391 141.5t391 -141.5t146 -366.5q0 -223 -146.5 -367.5t-390.5 -144.5t-390.5 144.5t-146.5 367.5zM227 1122l340 320h142l340 -320h-261l-151 160l-150 -160h-260zM379 483q0 -144 66 -231.5t196 -87.5q131 0 196.5 87.5t65.5 231.5t-65 228 t-197 84q-130 0 -196 -84t-66 -228z" />
<glyph unicode="&#xf5;" horiz-adv-x="1282" d="M104 483q0 225 146 366.5t391 141.5t391 -141.5t146 -366.5q0 -223 -146.5 -367.5t-390.5 -144.5t-390.5 144.5t-146.5 367.5zM219 1130q0 135 69 214t179 79q57 0 118 -29t114.5 -58t93.5 -29q86 0 86 133h180q0 -136 -68.5 -219.5t-177.5 -83.5q-42 0 -89.5 18 t-82.5 40t-76.5 40t-72.5 18q-89 0 -89 -123h-184zM379 483q0 -144 66 -231.5t196 -87.5q131 0 196.5 87.5t65.5 231.5t-65 228t-197 84q-130 0 -196 -84t-66 -228z" />
<glyph unicode="&#xf6;" horiz-adv-x="1282" d="M104 483q0 225 146 366.5t391 141.5t391 -141.5t146 -366.5q0 -223 -146.5 -367.5t-390.5 -144.5t-390.5 144.5t-146.5 367.5zM236 1282q0 63 44.5 107.5t108.5 44.5t109 -44.5t45 -107.5t-45 -107.5t-109 -44.5t-108.5 44.5t-44.5 107.5zM379 483q0 -144 66 -231.5 t196 -87.5q131 0 196.5 87.5t65.5 231.5t-65 228t-197 84q-130 0 -196 -84t-66 -228zM731 1282q0 63 45.5 107.5t110.5 44.5q63 0 108 -44.5t45 -107.5t-45 -107.5t-108 -44.5q-65 0 -110.5 44.5t-45.5 107.5z" />
<glyph unicode="&#xf7;" d="M147 629v194h940v-194h-940zM444 328q0 69 51 120.5t121 51.5q69 0 120.5 -51.5t51.5 -120.5q0 -70 -51.5 -121t-120.5 -51q-70 0 -121 51t-51 121zM444 1137q0 69 51 120.5t121 51.5q69 0 120.5 -51.5t51.5 -120.5q0 -70 -51.5 -121t-120.5 -51q-70 0 -121 50.5 t-51 121.5z" />
<glyph unicode="&#xf8;" horiz-adv-x="1282" d="M104 483q0 222 146 365t391 143q101 0 199 -30l127 167l211 -141l-123 -160q123 -138 123 -344q0 -107 -37.5 -201t-106 -163t-170 -108.5t-223.5 -39.5q-104 0 -205 33l-117 -154l-192 148l104 141q-127 143 -127 344zM379 483q0 -97 29 -168l340 459q-54 21 -107 21 q-129 0 -195.5 -86.5t-66.5 -225.5zM539 182q47 -18 102 -18q132 0 197 86t65 233q0 83 -24 150z" />
<glyph unicode="&#xf9;" horiz-adv-x="1253" d="M147 377v596h269v-527q0 -132 42.5 -191.5t149.5 -59.5q129 0 219 116v662h269v-701q0 -130 30 -272h-270l-16 102q-57 -57 -130.5 -91t-189.5 -34q-53 0 -103.5 13t-100 43.5t-86.5 75t-60 114t-23 154.5zM283 1405v18h340l139 -295h-162z" />
<glyph unicode="&#xfa;" horiz-adv-x="1253" d="M147 377v596h269v-527q0 -132 42.5 -191.5t149.5 -59.5q129 0 219 116v662h269v-701q0 -130 30 -272h-270l-16 102q-57 -57 -130.5 -91t-189.5 -34q-53 0 -103.5 13t-100 43.5t-86.5 75t-60 114t-23 154.5zM477 1128l141 295h338v-18l-317 -277h-162z" />
<glyph unicode="&#xfb;" horiz-adv-x="1253" d="M147 377v596h269v-527q0 -132 42.5 -191.5t149.5 -59.5q129 0 219 116v662h269v-701q0 -130 30 -272h-270l-16 102q-57 -57 -130.5 -91t-189.5 -34q-53 0 -103.5 13t-100 43.5t-86.5 75t-60 114t-23 154.5zM207 1122l340 320h141l340 -320h-260l-152 160l-149 -160h-260z " />
<glyph unicode="&#xfc;" horiz-adv-x="1253" d="M147 377v596h269v-527q0 -132 42.5 -191.5t149.5 -59.5q129 0 219 116v662h269v-701q0 -130 30 -272h-270l-16 102q-57 -57 -130.5 -91t-189.5 -34q-53 0 -103.5 13t-100 43.5t-86.5 75t-60 114t-23 154.5zM221 1282q0 63 45 107.5t109 44.5t108.5 -44.5t44.5 -107.5 t-44.5 -107.5t-108.5 -44.5t-109 44.5t-45 107.5zM717 1282q0 63 45.5 107.5t109.5 44.5q63 0 108.5 -44.5t45.5 -107.5t-45.5 -107.5t-108.5 -44.5q-64 0 -109.5 44.5t-45.5 107.5z" />
<glyph unicode="&#xfd;" horiz-adv-x="1206" d="M10 -471l58 209q68 -33 129 -33t103.5 38.5t92.5 143.5l84 179l-424 907h295l219 -516l49 -135l46 133l210 518h291l-575 -1213q-122 -262 -369 -262q-101 0 -209 31zM461 1128l141 295h338v-18l-317 -277h-162z" />
<glyph unicode="&#xfe;" horiz-adv-x="1269" d="M158 -483v1990h266v-641q131 125 295 125q119 0 207 -39t139 -110t75.5 -160.5t24.5 -200.5q0 -115 -38 -211t-101 -158t-141.5 -96t-161.5 -34q-101 0 -168 22.5t-131 77.5v-565h-266zM424 238q97 -76 221 -76q116 0 182 75.5t66 237.5q0 160 -62 238t-176 78 q-127 0 -231 -97v-456z" />
<glyph unicode="&#xff;" horiz-adv-x="1206" d="M10 -471l58 209q68 -33 129 -33t103.5 38.5t92.5 143.5l84 179l-424 907h295l219 -516l49 -135l46 133l210 518h291l-575 -1213q-122 -262 -369 -262q-101 0 -209 31zM205 1282q0 63 44.5 107.5t108.5 44.5t109 -44.5t45 -107.5t-45 -107.5t-109 -44.5t-108.5 44.5 t-44.5 107.5zM700 1282q0 63 45.5 107.5t110.5 44.5q63 0 108.5 -44.5t45.5 -107.5t-45.5 -107.5t-108.5 -44.5q-65 0 -110.5 44.5t-45.5 107.5z" />
<glyph unicode="&#x152;" horiz-adv-x="1916" d="M88 709q0 217 94 378t256 243.5t371 82.5h985v-239h-543v-326h424v-236h-424v-372h580v-240h-1022q-209 0 -371 83t-256 245.5t-94 380.5zM377 709q0 -218 114.5 -347t317.5 -129h170v947h-170q-204 0 -318 -127t-114 -344z" />
<glyph unicode="&#x153;" horiz-adv-x="1925" d="M104 483q0 222 141.5 365t372.5 143q271 0 392 -166q116 168 342 168q101 0 185.5 -30.5t148.5 -90t99.5 -153.5t35.5 -213q0 -41 -6 -90h-682q6 -127 78.5 -188.5t193.5 -61.5q74 0 155 26t142 68l90 -166q-186 -123 -406 -123q-252 0 -370 166q-126 -166 -402 -166 q-151 0 -268 68t-179.5 184.5t-62.5 259.5zM379 483q0 -91 26 -161t85.5 -114t146.5 -44q129 0 190.5 88t61.5 231q0 68 -14 123.5t-43.5 98.5t-79 66.5t-115.5 23.5q-129 0 -193.5 -86t-64.5 -226zM1137 571h438q0 113 -56.5 174.5t-158.5 61.5q-103 0 -162 -63t-61 -173z " />
<glyph unicode="&#x178;" horiz-adv-x="1320" d="M18 1413h299l297 -506l48 -92l49 94l295 504h294l-499 -835v-578h-279v569zM254 1663q0 61 44.5 100t109.5 39q63 0 106 -39t43 -100q0 -60 -43.5 -100.5t-105.5 -40.5q-65 0 -109.5 40.5t-44.5 100.5zM762 1663q0 61 43.5 100t107.5 39t107 -39t43 -100 q0 -60 -43.5 -100.5t-106.5 -40.5t-107 40.5t-44 100.5z" />
<glyph unicode="&#x2c6;" horiz-adv-x="1044" d="M113 1122l340 320h141l340 -320h-260l-152 160l-149 -160h-260z" />
<glyph unicode="&#x2dc;" horiz-adv-x="1044" d="M102 1130q0 135 69 214t179 79q57 0 118 -29t114.5 -58t93.5 -29q86 0 86 133h180q0 -136 -68.5 -219.5t-177.5 -83.5q-42 0 -89.5 18t-82.5 40t-76.5 40t-72.5 18q-88 0 -88 -123h-185z" />
<glyph unicode="&#x2000;" horiz-adv-x="977" />
<glyph unicode="&#x2001;" horiz-adv-x="1954" />
<glyph unicode="&#x2002;" horiz-adv-x="977" />
<glyph unicode="&#x2003;" horiz-adv-x="1954" />
<glyph unicode="&#x2004;" horiz-adv-x="651" />
<glyph unicode="&#x2005;" horiz-adv-x="488" />
<glyph unicode="&#x2006;" horiz-adv-x="325" />
<glyph unicode="&#x2007;" horiz-adv-x="325" />
<glyph unicode="&#x2008;" horiz-adv-x="244" />
<glyph unicode="&#x2009;" horiz-adv-x="390" />
<glyph unicode="&#x200a;" horiz-adv-x="108" />
<glyph unicode="&#x2010;" horiz-adv-x="925" d="M137 371v229h651v-229h-651z" />
<glyph unicode="&#x2011;" horiz-adv-x="925" d="M137 371v229h651v-229h-651z" />
<glyph unicode="&#x2012;" horiz-adv-x="925" d="M137 371v229h651v-229h-651z" />
<glyph unicode="&#x2013;" horiz-adv-x="1136" d="M121 397v176h895v-176h-895z" />
<glyph unicode="&#x2014;" horiz-adv-x="1945" d="M121 397v176h1704v-176h-1704z" />
<glyph unicode="&#x2018;" horiz-adv-x="532" d="M80 1024v12l282 459h93l-60 -471h-315z" />
<glyph unicode="&#x2019;" horiz-adv-x="532" d="M80 1024l59 471h316v-14l-285 -457h-90z" />
<glyph unicode="&#x201a;" horiz-adv-x="528" d="M76 -221l59 471h316v-14l-283 -457h-92z" />
<glyph unicode="&#x201c;" horiz-adv-x="1024" d="M80 1024v12l282 459h93l-60 -471h-315zM569 1024v12l285 459h90l-59 -471h-316z" />
<glyph unicode="&#x201d;" horiz-adv-x="1024" d="M80 1024l59 471h316v-14l-285 -457h-90zM569 1024l60 471h315v-14l-282 -457h-93z" />
<glyph unicode="&#x201e;" horiz-adv-x="991" d="M61 -221l60 471h315v-14l-282 -457h-93zM553 -221l59 471h316v-14l-285 -457h-90z" />
<glyph unicode="&#x2022;" horiz-adv-x="899" d="M166 698q0 117 84 200t201 83q116 0 198 -83t82 -200t-82 -199.5t-198 -82.5q-117 0 -201 82.5t-84 199.5z" />
<glyph unicode="&#x2026;" horiz-adv-x="1953" d="M166 143q0 69 49 117.5t119 48.5q68 0 116 -48.5t48 -117.5q0 -68 -48.5 -117t-115.5 -49q-70 0 -119 49t-49 117zM809 143q0 69 49 117.5t119 48.5q68 0 116 -48.5t48 -117.5q0 -68 -48.5 -117t-115.5 -49q-70 0 -119 49t-49 117zM1452 143q0 69 49 117.5t119 48.5 q68 0 116 -48.5t48 -117.5q0 -68 -48.5 -117t-115.5 -49q-70 0 -119 49t-49 117z" />
<glyph unicode="&#x202f;" horiz-adv-x="390" />
<glyph unicode="&#x2039;" horiz-adv-x="765" d="M61 430l388 444h256l-351 -444l351 -430h-256z" />
<glyph unicode="&#x203a;" horiz-adv-x="765" d="M61 0l351 444l-351 430h256l388 -430l-388 -444h-256z" />
<glyph unicode="&#x205f;" horiz-adv-x="488" />
<glyph unicode="&#x20ac;" d="M53 477v160h152q-2 23 -2 72q0 57 2 88h-152v159h174q42 229 174.5 358.5t335.5 129.5q144 0 258.5 -61t184.5 -185l-181 -123q-34 72 -101.5 115t-145.5 43q-99 0 -169 -72t-83 -205h372v-159h-395q-2 -29 -2 -88q0 -49 2 -72h395v-160h-376q13 -144 83 -219.5 t173 -75.5q81 0 145.5 43.5t101.5 114.5l181 -121q-75 -118 -194 -182t-249 -64q-207 0 -341 134t-171 370h-172z" />
<glyph unicode="&#x2122;" horiz-adv-x="1544" d="M55 1331v127h541v-127h-186v-502h-162v502h-193zM717 829v650h14l322 -365l321 365h15v-650h-162v283l-170 -209l-178 211v-285h-162z" />
<glyph unicode="&#x25fc;" horiz-adv-x="972" d="M0 0v973h973v-973h-973z" />
</font>
</defs>
</svg>
