<?xml version="1.0" encoding="utf-8"?>
<!-- Generator: Adobe Illustrator 16.0.0, SVG Export Plug-In . SVG Version: 6.00 Build 0)  -->
<!DOCTYPE svg PUBLIC "-//W3C//DTD SVG 1.1//EN" "http://www.w3.org/Graphics/SVG/1.1/DTD/svg11.dtd">
<svg version="1.1" id="Layer_1" xmlns="http://www.w3.org/2000/svg" xmlns:xlink="http://www.w3.org/1999/xlink" x="0px" y="0px"
	 width="50px" height="25px" viewBox="0 0 50 25" enable-background="new 0 0 50 25" xml:space="preserve">
<path opacity="0.6" fill="#272361" d="M49.982,2.895V2.823h-5.118V0h-0.073v2.823h-1.64V0h-0.074v2.823H36.41V0h-0.073v2.823h-1.64
	V0h-0.073v2.823h-2.706V0h-0.072v2.823h-1.441V0H30.33v2.823h-5.391V0h-0.073v2.823h-1.441V0h-0.074v2.823h-2.972V0h-0.074v2.823
	h-1.639V0h-0.074v2.823h-6.698V0H11.82v2.823h-1.608V0h-0.073v2.823H6.493V0H6.419v2.823h-1.6V0H4.746v2.823h-4.763v0.072h4.763
	v4.73h-4.763v0.073h4.763v1.182h-4.763v0.071h4.763v7.438h-4.763v0.072h4.763v1.123h-4.763v0.073h4.763v4.698h-4.763v0.073h4.763V25
	H4.82v-2.571h1.6V25h0.074v-2.571h3.645V25h0.073v-2.571h1.608V25h0.074v-2.571h6.698V25h0.074v-2.571h1.639V25h0.074v-2.571h2.972
	V25h0.074v-2.571h1.441V25h0.073v-2.571h5.391V25h0.074v-2.571h1.441V25h0.072v-2.571h2.706V25h0.073v-2.571h1.64V25h0.073v-2.571
	h6.667V25h0.074v-2.571h1.64V25h0.073v-2.571h5.118v-0.073h-5.118v-4.698h5.118v-0.073h-5.118v-1.123h5.118v-0.072h-5.118V8.951
	h5.118V8.879h-5.118V7.698h5.118V7.625h-5.118v-4.73H49.982z M43.077,2.895v4.73H36.41v-4.73H43.077z M11.894,8.951h6.698v7.438
	h-6.698V8.951z M11.82,16.389h-1.608V8.951h1.608V16.389z M18.666,8.951h1.639v7.438h-1.639V8.951z M20.379,8.951h2.972v7.438
	h-2.972V8.951z M23.425,8.951h1.441v7.438h-1.441V8.951z M24.939,8.951h5.391v7.438h-5.391V8.951z M30.404,8.951h1.441v7.438h-1.441
	V8.951z M31.918,8.951h2.706v7.438h-2.706V8.951z M34.697,8.951h1.64v7.438h-1.64V8.951z M34.697,8.879V7.698h1.64v1.182H34.697z
	 M34.624,8.879h-2.706V7.698h2.706V8.879z M31.846,8.879h-1.441V7.698h1.441V8.879z M30.33,8.879h-5.391V7.698h5.391V8.879z
	 M24.866,8.879h-1.441V7.698h1.441V8.879z M23.351,8.879h-2.972V7.698h2.972V8.879z M20.305,8.879h-1.639V7.698h1.639V8.879z
	 M18.592,8.879h-6.698V7.698h6.698V8.879z M11.82,8.879h-1.608V7.698h1.608V8.879z M10.138,8.879H6.493V7.698h3.645V8.879z
	 M10.138,8.951v7.438H6.493V8.951H10.138z M10.138,16.461v1.123H6.493v-1.123H10.138z M10.211,16.461h1.608v1.123h-1.608V16.461z
	 M11.894,16.461h6.698v1.123h-6.698V16.461z M18.666,16.461h1.639v1.123h-1.639V16.461z M20.379,16.461h2.972v1.123h-2.972V16.461z
	 M23.425,16.461h1.441v1.123h-1.441V16.461z M24.939,16.461h5.391v1.123h-5.391V16.461z M30.404,16.461h1.441v1.123h-1.441V16.461z
	 M31.918,16.461h2.706v1.123h-2.706V16.461z M34.697,16.461h1.64v1.123h-1.64V16.461z M36.41,16.461h6.667v1.123H36.41V16.461z
	 M36.41,16.389V8.951h6.667v7.438H36.41z M36.41,8.879V7.698h6.667v1.182H36.41z M36.337,2.895v4.73h-1.64v-4.73H36.337z
	 M34.624,2.895v4.73h-2.706v-4.73H34.624z M31.846,2.895v4.73h-1.441v-4.73H31.846z M30.33,2.895v4.73h-5.391v-4.73H30.33z
	 M24.866,2.895v4.73h-1.441v-4.73H24.866z M23.351,2.895v4.73h-2.972v-4.73H23.351z M20.305,2.895v4.73h-1.639v-4.73H20.305z
	 M18.592,2.895v4.73h-6.698v-4.73H18.592z M11.82,2.895v4.73h-1.608v-4.73H11.82z M10.138,2.895v4.73H6.493v-4.73H10.138z
	 M4.82,2.895h1.6v4.73h-1.6V2.895z M4.82,7.698h1.6v1.182h-1.6V7.698z M4.82,8.951h1.6v7.438h-1.6V8.951z M4.82,16.461h1.6v1.123
	h-1.6V16.461z M4.82,22.355v-4.698h1.6v4.698H4.82z M6.493,22.355v-4.698h3.645v4.698H6.493z M10.211,22.355v-4.698h1.608v4.698
	H10.211z M11.894,22.355v-4.698h6.698v4.698H11.894z M18.666,22.355v-4.698h1.639v4.698H18.666z M20.379,22.355v-4.698h2.972v4.698
	H20.379z M23.425,22.355v-4.698h1.441v4.698H23.425z M24.939,22.355v-4.698h5.391v4.698H24.939z M30.404,22.355v-4.698h1.441v4.698
	H30.404z M31.918,22.355v-4.698h2.706v4.698H31.918z M34.697,22.355v-4.698h1.64v4.698H34.697z M36.41,22.355v-4.698h6.667v4.698
	H36.41z M44.791,22.355h-1.64v-4.698h1.64V22.355z M44.791,17.584h-1.64v-1.123h1.64V17.584z M44.791,16.389h-1.64V8.951h1.64
	V16.389z M44.791,8.879h-1.64V7.698h1.64V8.879z M44.791,7.625h-1.64v-4.73h1.64V7.625z"/>
</svg>
