<?xml version="1.0" encoding="utf-8"?>
<!-- Generator: Adobe Illustrator 16.0.0, SVG Export Plug-In . SVG Version: 6.00 Build 0)  -->
<!DOCTYPE svg PUBLIC "-//W3C//DTD SVG 1.1//EN" "http://www.w3.org/Graphics/SVG/1.1/DTD/svg11.dtd">
<svg version="1.1" id="Layer_1" xmlns="http://www.w3.org/2000/svg" xmlns:xlink="http://www.w3.org/1999/xlink" x="0px" y="0px"
	 width="50px" height="25px" viewBox="0 0 50 25" enable-background="new 0 0 50 25" xml:space="preserve">
<g>
	<g>
		
			<linearGradient id="SVGID_1_" gradientUnits="userSpaceOnUse" x1="6.085" y1="17.1494" x2="6.085" y2="2.2988" gradientTransform="matrix(1.0097 2.175258e-05 2.174018e-05 0.9989 -0.5508 0.54)">
			<stop  offset="0" style="stop-color:#E24F53"/>
			<stop  offset="0.5" style="stop-color:#F05354"/>
			<stop  offset="1" style="stop-color:#F37872"/>
		</linearGradient>
		<path fill="url(#SVGID_1_)" d="M6.429,2.839L6.399,17.67l-1.643-0.004l0.03-14.831L6.429,2.839z"/>
		
			<linearGradient id="SVGID_2_" gradientUnits="userSpaceOnUse" x1="15.6279" y1="17.1006" x2="15.6279" y2="7.1143" gradientTransform="matrix(1.0097 2.175258e-05 2.174018e-05 0.9989 -0.5508 0.54)">
			<stop  offset="0" style="stop-color:#E24F53"/>
			<stop  offset="0.5" style="stop-color:#F05354"/>
			<stop  offset="1" style="stop-color:#F37872"/>
		</linearGradient>
		<path fill="url(#SVGID_2_)" d="M20.312,12.633c-0.005,2.824-1.899,4.994-5.103,4.988c-3.184-0.006-5.068-2.185-5.063-5.008
			c0.006-2.845,1.9-4.974,5.083-4.968C18.433,7.653,20.317,9.789,20.312,12.633z M11.83,12.616c-0.004,2.133,1.142,3.78,3.381,3.786
			c2.259,0.005,3.412-1.64,3.417-3.772c0.004-2.153-1.144-3.741-3.402-3.745C12.988,8.879,11.834,10.463,11.83,12.616z"/>
		
			<linearGradient id="SVGID_3_" gradientUnits="userSpaceOnUse" x1="28.1445" y1="21.8838" x2="28.1445" y2="6.0488" gradientTransform="matrix(1.0097 2.175258e-05 2.174018e-05 0.9989 -0.5508 0.54)">
			<stop  offset="0" style="stop-color:#E24F53"/>
			<stop  offset="0.5" style="stop-color:#F05354"/>
			<stop  offset="1" style="stop-color:#F37872"/>
		</linearGradient>
		<path fill="url(#SVGID_3_)" d="M31.783,6.583c0.431,0.001,0.842,0.062,1.334,0.206l-0.29,1.015
			c-0.266-0.143-0.532-0.204-0.902-0.206c-0.699-0.001-1.213,0.404-1.419,0.933c0.758,0.611,1.332,1.323,1.329,2.583
			c-0.004,1.991-1.546,3.491-4.176,3.486c-0.862-0.001-1.438-0.125-1.95-0.369c-0.534,0.222-1.13,0.606-1.132,1.216
			c-0.002,0.873,0.8,1.058,3.181,1.104c2.28,0.045,4.99,0.151,4.985,2.692c-0.005,2.336-2.532,3.163-5.202,3.158
			c-3.101-0.006-4.927-0.903-4.922-2.793c0.002-1.26,1.194-2.03,1.832-2.312c-0.985-0.349-1.312-0.959-1.311-1.527
			c0.001-0.914,0.64-1.461,1.584-2.029c-0.798-0.631-1.332-1.464-1.329-2.642c0.004-2.011,1.546-3.431,4.237-3.425
			c0.616,0.001,1.232,0.084,1.786,0.268C29.975,6.944,30.838,6.581,31.783,6.583z M24.036,19.447
			c-0.002,1.096,0.653,1.931,3.61,1.937c2.67,0.005,3.698-0.866,3.7-1.963c0.004-1.585-1.804-1.589-3.733-1.633
			c-1.068-0.022-1.787-0.086-2.157-0.127C24.881,17.904,24.037,18.41,24.036,19.447z M27.609,8.747
			c-1.664-0.003-2.712,0.909-2.715,2.352c-0.003,1.462,1.043,2.459,2.706,2.463c1.704,0.003,2.733-0.99,2.736-2.452
			C30.339,9.667,29.314,8.752,27.609,8.747z"/>
		
			<linearGradient id="SVGID_4_" gradientUnits="userSpaceOnUse" x1="39.8711" y1="17.1494" x2="39.8711" y2="7.1631" gradientTransform="matrix(1.0097 2.175258e-05 2.174018e-05 0.9989 -0.5508 0.54)">
			<stop  offset="0" style="stop-color:#E24F53"/>
			<stop  offset="0.5" style="stop-color:#F05354"/>
			<stop  offset="1" style="stop-color:#F37872"/>
		</linearGradient>
		<path fill="url(#SVGID_4_)" d="M44.791,12.683c-0.006,2.824-1.899,4.995-5.104,4.988c-3.183-0.007-5.068-2.185-5.062-5.009
			c0.006-2.843,1.899-4.973,5.082-4.967C42.91,7.703,44.797,9.838,44.791,12.683z M36.309,12.666
			c-0.004,2.132,1.143,3.782,3.382,3.787c2.259,0.004,3.411-1.64,3.416-3.773c0.004-2.154-1.143-3.74-3.402-3.745
			C37.466,8.93,36.313,10.512,36.309,12.666z"/>
	</g>
</g>
</svg>
