<?xml version="1.0" encoding="utf-8"?>
<!-- Generator: Adobe Illustrator 16.0.0, SVG Export Plug-In . SVG Version: 6.00 Build 0)  -->
<!DOCTYPE svg PUBLIC "-//W3C//DTD SVG 1.1//EN" "http://www.w3.org/Graphics/SVG/1.1/DTD/svg11.dtd">
<svg version="1.1" id="Layer_1" xmlns="http://www.w3.org/2000/svg" xmlns:xlink="http://www.w3.org/1999/xlink" x="0px" y="0px"
	 width="592.251px" height="300px" viewBox="0 0 592.251 300" enable-background="new 0 0 592.251 300" xml:space="preserve">
<path opacity="0.6" fill="#272361" d="M592.251,34.736v-0.872h-60.618V0h-0.872v33.864h-19.425V0h-0.872v33.864h-78.975V0h-0.871
	v33.864h-19.425V0h-0.872v33.864h-32.032V0h-0.871v33.864h-17.069V0h-0.871v33.864h-63.862V0h-0.873v33.864h-17.071V0H276.8v33.864
	h-35.203V0h-0.872v33.864h-19.428V0h-0.872v33.864h-79.338V0h-0.872v33.864h-19.057V0h-0.872v33.864H77.121V0H76.25v33.864H57.298V0
	h-0.872v33.864H0v0.872h56.426v56.735H0v0.872h56.426v14.167H0v0.872h56.426v89.21H0v0.872h56.426v13.479H0v0.872h56.426v56.354H0
	v0.872h56.426v30.861h0.872v-30.861H76.25v30.861h0.872v-30.861h43.165v30.861h0.872v-30.861h19.057v30.861h0.872v-30.861h79.338
	v30.861h0.872v-30.861h19.428v30.861h0.872v-30.861H276.8v30.861h0.872v-30.861h17.071v30.861h0.873v-30.861h63.862v30.861h0.871
	v-30.861h17.069v30.861h0.871v-30.861h32.032v30.861h0.872v-30.861h19.425v30.861h0.871v-30.861h78.975v30.861h0.872v-30.861h19.425
	v30.861h0.872v-30.861h60.618v-0.872h-60.618v-56.354h60.618v-0.872h-60.618v-13.479h60.618v-0.872h-60.618v-89.21h60.618v-0.872
	h-60.618V92.344h60.618v-0.872h-60.618V34.736H592.251z M510.464,34.736v56.735h-78.975V34.736H510.464z M141.087,107.382h79.338
	v89.21h-79.338V107.382z M140.215,196.593h-19.057v-89.21h19.057V196.593z M221.297,107.382h19.428v89.21h-19.428V107.382z
	 M241.597,107.382H276.8v89.21h-35.203V107.382z M277.672,107.382h17.071v89.21h-17.071V107.382z M295.616,107.382h63.862v89.21
	h-63.862V107.382z M360.349,107.382h17.069v89.21h-17.069V107.382z M378.289,107.382h32.032v89.21h-32.032V107.382z
	 M411.193,107.382h19.425v89.21h-19.425V107.382z M411.193,106.511V92.344h19.425v14.167H411.193z M410.321,106.511h-32.032V92.344
	h32.032V106.511z M377.418,106.511h-17.069V92.344h17.069V106.511z M359.478,106.511h-63.862V92.344h63.862V106.511z
	 M294.743,106.511h-17.071V92.344h17.071V106.511z M276.8,106.511h-35.203V92.344H276.8V106.511z M240.725,106.511h-19.428V92.344
	h19.428V106.511z M220.425,106.511h-79.338V92.344h79.338V106.511z M140.215,106.511h-19.057V92.344h19.057V106.511z
	 M120.286,106.511H77.121V92.344h43.165V106.511z M120.286,107.382v89.21H77.121v-89.21H120.286z M120.286,197.465v13.479H77.121
	v-13.479H120.286z M121.158,197.465h19.057v13.479h-19.057V197.465z M141.087,197.465h79.338v13.479h-79.338V197.465z
	 M221.297,197.465h19.428v13.479h-19.428V197.465z M241.597,197.465H276.8v13.479h-35.203V197.465z M277.672,197.465h17.071v13.479
	h-17.071V197.465z M295.616,197.465h63.862v13.479h-63.862V197.465z M360.349,197.465h17.069v13.479h-17.069V197.465z
	 M378.289,197.465h32.032v13.479h-32.032V197.465z M411.193,197.465h19.425v13.479h-19.425V197.465z M431.489,197.465h78.975v13.479
	h-78.975V197.465z M431.489,196.593v-89.21h78.975v89.21H431.489z M431.489,106.511V92.344h78.975v14.167H431.489z M430.618,34.736
	v56.735h-19.425V34.736H430.618z M410.321,34.736v56.735h-32.032V34.736H410.321z M377.418,34.736v56.735h-17.069V34.736H377.418z
	 M359.478,34.736v56.735h-63.862V34.736H359.478z M294.743,34.736v56.735h-17.071V34.736H294.743z M276.8,34.736v56.735h-35.203
	V34.736H276.8z M240.725,34.736v56.735h-19.428V34.736H240.725z M220.425,34.736v56.735h-79.338V34.736H220.425z M140.215,34.736
	v56.735h-19.057V34.736H140.215z M120.286,34.736v56.735H77.121V34.736H120.286z M57.298,34.736H76.25v56.735H57.298V34.736z
	 M57.298,92.344H76.25v14.167H57.298V92.344z M57.298,107.382H76.25v89.21H57.298V107.382z M57.298,197.465H76.25v13.479H57.298
	V197.465z M57.298,268.17v-56.354H76.25v56.354H57.298z M77.121,268.17v-56.354h43.165v56.354H77.121z M121.158,268.17v-56.354
	h19.057v56.354H121.158z M141.087,268.17v-56.354h79.338v56.354H141.087z M221.297,268.17v-56.354h19.428v56.354H221.297z
	 M241.597,268.17v-56.354H276.8v56.354H241.597z M277.672,268.17v-56.354h17.071v56.354H277.672z M295.616,268.17v-56.354h63.862
	v56.354H295.616z M360.349,268.17v-56.354h17.069v56.354H360.349z M378.289,268.17v-56.354h32.032v56.354H378.289z M411.193,268.17
	v-56.354h19.425v56.354H411.193z M431.489,268.17v-56.354h78.975v56.354H431.489z M530.761,268.17h-19.425v-56.354h19.425V268.17z
	 M530.761,210.944h-19.425v-13.479h19.425V210.944z M530.761,196.593h-19.425v-89.21h19.425V196.593z M530.761,106.511h-19.425
	V92.344h19.425V106.511z M530.761,91.472h-19.425V34.736h19.425V91.472z"/>
</svg>
