<?xml version="1.0" encoding="utf-8"?>
<!-- Generator: Adobe Illustrator 16.0.0, SVG Export Plug-In . SVG Version: 6.00 Build 0)  -->
<!DOCTYPE svg PUBLIC "-//W3C//DTD SVG 1.1//EN" "http://www.w3.org/Graphics/SVG/1.1/DTD/svg11.dtd">
<svg version="1.1" id="Layer_1" xmlns="http://www.w3.org/2000/svg" xmlns:xlink="http://www.w3.org/1999/xlink" x="0px" y="0px"
	 width="592.251px" height="300px" viewBox="0 0 592.251 300" enable-background="new 0 0 592.251 300" xml:space="preserve">
<g>
	<g>
		
			<linearGradient id="SVGID_1_" gradientUnits="userSpaceOnUse" x1="67.1899" y1="211.6162" x2="67.1899" y2="33.6221" gradientTransform="matrix(1.002 1.354527e-05 1.354129e-05 0.9952 -1.0557 1.2739)">
			<stop  offset="0" style="stop-color:#E24F53"/>
			<stop  offset="0.5" style="stop-color:#F05354"/>
			<stop  offset="1" style="stop-color:#F37872"/>
		</linearGradient>
		<path fill="url(#SVGID_1_)" d="M76.217,34.777l-0.356,177.105l-19.541-0.041l0.355-177.104L76.217,34.777z"/>
		
			<linearGradient id="SVGID_2_" gradientUnits="userSpaceOnUse" x1="181.5688" y1="211.0303" x2="181.5688" y2="91.3364" gradientTransform="matrix(1.002 1.354527e-05 1.354129e-05 0.9952 -1.0557 1.2739)">
			<stop  offset="0" style="stop-color:#E24F53"/>
			<stop  offset="0.5" style="stop-color:#F05354"/>
			<stop  offset="1" style="stop-color:#F37872"/>
		</linearGradient>
		<path fill="url(#SVGID_2_)" d="M241.326,151.737c-0.064,33.723-22.586,59.637-60.685,59.563
			c-37.861-0.075-60.281-26.079-60.216-59.804c0.067-33.962,22.596-59.396,60.449-59.319
			C218.98,92.259,241.401,117.773,241.326,151.737z M140.453,151.531c-0.05,25.48,13.59,45.154,40.214,45.209
			c26.866,0.056,40.585-19.565,40.64-45.038c0.047-25.711-13.592-44.666-40.46-44.72
			C154.224,106.92,140.508,125.827,140.453,151.531z"/>
		
			<linearGradient id="SVGID_3_" gradientUnits="userSpaceOnUse" x1="331.5967" y1="268.3633" x2="331.5967" y2="78.5684" gradientTransform="matrix(1.002 1.354527e-05 1.354129e-05 0.9952 -1.0557 1.2739)">
			<stop  offset="0" style="stop-color:#E24F53"/>
			<stop  offset="0.5" style="stop-color:#F05354"/>
			<stop  offset="1" style="stop-color:#F37872"/>
		</linearGradient>
		<path fill="url(#SVGID_3_)" d="M377.766,79.473c5.132,0.014,10.014,0.748,15.87,2.459l-3.445,12.122
			c-3.17-1.705-6.339-2.438-10.742-2.451c-8.305-0.015-14.418,4.828-16.873,11.129c9.021,7.294,15.844,15.804,15.813,30.846
			c-0.046,23.769-18.398,41.683-49.664,41.624c-10.259-0.016-17.1-1.488-23.198-4.408c-6.351,2.655-13.442,7.245-13.462,14.526
			c-0.02,10.431,9.505,12.637,37.832,13.175c27.111,0.542,59.353,1.819,59.29,32.149c-0.057,27.898-30.117,37.786-61.867,37.718
			c-36.886-0.076-58.602-10.793-58.554-33.353c0.025-15.042,14.211-24.238,21.79-27.612c-11.713-4.15-15.607-11.432-15.593-18.229
			c0.017-10.919,7.605-17.451,18.852-24.224c-9.505-7.538-15.837-17.5-15.811-31.571c0.048-24.015,18.402-40.965,50.393-40.896
			c7.334,0.007,14.659,0.999,21.247,3.199C356.264,83.799,366.525,79.447,377.766,79.473z M285.622,233.102
			c-0.025,13.101,7.764,23.062,42.94,23.131c31.752,0.062,43.984-10.342,44.01-23.438c0.04-18.931-21.455-18.973-44.415-19.495
			c-12.702-0.271-21.25-1.021-25.645-1.514C295.672,214.684,285.644,220.729,285.622,233.102z M328.13,105.327
			c-19.783-0.034-32.264,10.859-32.297,28.081c-0.037,17.466,12.398,29.377,32.18,29.427c20.273,0.035,32.512-11.825,32.546-29.29
			C360.592,116.315,348.408,105.375,328.13,105.327z"/>
		
			<linearGradient id="SVGID_4_" gradientUnits="userSpaceOnUse" x1="472.1416" y1="211.6162" x2="472.1416" y2="91.9233" gradientTransform="matrix(1.002 1.354527e-05 1.354129e-05 0.9952 -1.0557 1.2739)">
			<stop  offset="0" style="stop-color:#E24F53"/>
			<stop  offset="0.5" style="stop-color:#F05354"/>
			<stop  offset="1" style="stop-color:#F37872"/>
		</linearGradient>
		<path fill="url(#SVGID_4_)" d="M532.475,152.324c-0.067,33.718-22.592,59.64-60.696,59.563
			c-37.853-0.081-60.275-26.086-60.208-59.816c0.068-33.956,22.593-59.381,60.45-59.306
			C510.123,92.847,532.543,118.355,532.475,152.324z M431.601,152.119c-0.054,25.474,13.589,45.155,40.21,45.21
			c26.867,0.047,40.584-19.572,40.635-45.046c0.051-25.711-13.586-44.666-40.457-44.72
			C445.365,107.509,431.654,126.408,431.601,152.119z"/>
	</g>
</g>
</svg>
