<?xml version="1.0" encoding="utf-8"?>
<!-- Generator: Adobe Illustrator 16.0.0, SVG Export Plug-In . SVG Version: 6.00 Build 0)  -->
<!DOCTYPE svg PUBLIC "-//W3C//DTD SVG 1.1//EN" "http://www.w3.org/Graphics/SVG/1.1/DTD/svg11.dtd">
<svg version="1.1" id="Layer_1" xmlns="http://www.w3.org/2000/svg" xmlns:xlink="http://www.w3.org/1999/xlink" x="0px" y="0px"
	 width="32.199px" height="32.209px" viewBox="0 0 32.199 32.209" enable-background="new 0 0 32.199 32.209" xml:space="preserve">
<g>
	<path fill="#D6DE23" d="M26.461,32.183c-6.895,0-13.793,0-20.685,0c-0.083-0.014-0.166-0.048-0.247-0.062
		c-1.707-0.209-3.084-0.999-4.149-2.33c-0.978-1.229-1.339-2.646-1.339-4.197c0.021-6.313,0.018-12.642,0.018-18.96
		c0-0.242,0-0.482,0.006-0.721c0.149-2.732,2.069-5.03,4.729-5.67c0.338-0.09,0.709-0.153,1.049-0.215c6.856,0,13.704,0,20.558,0
		c0.08,0.023,0.146,0.055,0.233,0.062c3.173,0.369,5.524,2.974,5.524,6.164c0,6.579,0,13.166,0,19.75
		c0,2.829-1.934,5.272-4.67,5.972C27.145,32.062,26.799,32.112,26.461,32.183z M24.32,12.843c1.309,4.273,0.375,7.854-3.275,10.506
		c-2.869,2.084-6.777,2.133-9.708,0.104C7.545,20.825,6.581,17.188,7.89,12.85c-1.549,0-3.118,0-4.713,0c0,0.154,0,0.282,0,0.418
		c0,1.48,0,2.952,0,4.433c0,2.717-0.009,5.429,0.008,8.146c0.005,1.864,1.341,3.178,3.19,3.178c6.484,0,12.971,0,19.46-0.002
		c0.206,0,0.411,0,0.608-0.035c1.406-0.225,2.604-1.436,2.588-3.236c-0.025-4.163-0.012-8.339-0.012-12.51
		c0-0.13-0.006-0.253-0.017-0.396C27.421,12.843,25.875,12.843,24.32,12.843z M16.092,21.744c3.109,0.007,5.67-2.529,5.67-5.611
		c0-3.113-2.516-5.639-5.619-5.656c-3.146-0.015-5.688,2.516-5.688,5.667C10.455,19.213,12.997,21.737,16.092,21.744z M23.037,3.78
		c0,1.829,0,3.603,0,5.382c1.82,0,3.596,0,5.361,0c0-1.813,0-3.592,0-5.382C26.6,3.78,24.822,3.78,23.037,3.78z"/>
</g>
</svg>
