<?xml version="1.0" encoding="utf-8"?>
<!-- Generator: Adobe Illustrator 16.0.0, SVG Export Plug-In . SVG Version: 6.00 Build 0)  -->
<!DOCTYPE svg PUBLIC "-//W3C//DTD SVG 1.1//EN" "http://www.w3.org/Graphics/SVG/1.1/DTD/svg11.dtd">
<svg version="1.1" id="Layer_1" xmlns="http://www.w3.org/2000/svg" xmlns:xlink="http://www.w3.org/1999/xlink" x="0px" y="0px"
	 width="42.834px" height="32.209px" viewBox="0 0 42.834 32.209" enable-background="new 0 0 42.834 32.209" xml:space="preserve">
<path fill="#D6DE23" d="M37.162,0H5.673C2.54,0,0,2.515,0,5.618V26.59c0,3.104,2.54,5.619,5.673,5.619h31.489
	c3.13,0,5.672-2.516,5.672-5.619V5.618C42.834,2.515,40.292,0,37.162,0z M38.558,27.996c-0.329,0.309-0.744,0.461-1.164,0.461
	c-0.455,0-0.909-0.182-1.243-0.544l-10.1-10.87l-3.554,2.934l0,0c-0.145,0.119-0.309,0.209-0.479,0.271
	c-0.021,0.01-0.038,0.02-0.056,0.023c-0.021,0.008-0.039,0.018-0.061,0.025c-0.041,0.01-0.087,0.014-0.127,0.023
	c-0.067,0.014-0.131,0.031-0.194,0.037c-0.042,0.006-0.081,0-0.123,0c-0.017,0-0.028,0.008-0.039,0.008
	c-0.014,0-0.024-0.008-0.041-0.008c-0.042,0-0.081,0.006-0.122,0c-0.061-0.006-0.112-0.02-0.169-0.033
	c-0.053-0.01-0.102-0.014-0.153-0.027c-0.021-0.008-0.039-0.018-0.054-0.023c-0.024-0.006-0.045-0.018-0.065-0.029
	c-0.169-0.062-0.331-0.148-0.475-0.27c0,0,0,0-0.005,0L16.6,16.89L6.704,27.893c-0.339,0.373-0.8,0.564-1.266,0.564
	c-0.408,0-0.814-0.146-1.141-0.441c-0.697-0.631-0.752-1.715-0.123-2.416l9.786-10.885L4.357,6.787
	C3.631,6.187,3.523,5.11,4.123,4.378c0.598-0.729,1.666-0.836,2.395-0.237l1.605,1.324l9.381,7.743l3.913,3.23L34.713,5.465
	l1.602-1.324c0.726-0.599,1.799-0.493,2.395,0.237c0.597,0.731,0.494,1.809-0.233,2.409l-9.788,8.077l9.953,10.714
	C39.28,26.269,39.243,27.352,38.558,27.996z"/>
</svg>
