<?xml version="1.0" encoding="utf-8"?>
<!-- Generator: Adobe Illustrator 16.0.0, SVG Export Plug-In . SVG Version: 6.00 Build 0)  -->
<!DOCTYPE svg PUBLIC "-//W3C//DTD SVG 1.1//EN" "http://www.w3.org/Graphics/SVG/1.1/DTD/svg11.dtd">
<svg version="1.1" id="Layer_1" xmlns="http://www.w3.org/2000/svg" xmlns:xlink="http://www.w3.org/1999/xlink" x="0px" y="0px"
	 width="45.778px" height="45.78px" viewBox="0 0 45.778 45.78" enable-background="new 0 0 45.778 45.78" xml:space="preserve">
<g>
	<path fill="#EAE8E5" d="M25.77,17.767c0-1.442-1.008-2.369-2.921-2.369c-0.889,0-1.963,0.038-2.485,0.073v4.773
		c0.522,0.044,1.633,0.068,2.522,0.068C25.181,20.313,25.77,19.171,25.77,17.767z"/>
	<path fill="#EAE8E5" d="M23.223,25.132c-1.135,0-2.227,0.068-2.86,0.146v5.143c0.658,0.074,1.933,0.147,2.962,0.147
		c2.252,0,3.443-0.893,3.443-2.739C26.769,25.603,25.021,25.132,23.223,25.132z"/>
	<path fill="#EAE8E5" d="M37.682,0H8.096C3.625,0,0,3.625,0,8.096v29.588c0,4.472,3.625,8.096,8.096,8.096h29.586
		c4.471,0,8.096-3.624,8.096-8.096V8.096C45.778,3.625,42.153,0,37.682,0z M22.811,35.899c-2.81,0-6.736-0.153-9.324-0.266V10.107
		c2.811-0.072,5.839-0.226,8.576-0.226c6.711,0,10.32,2.038,10.32,7c0,2.182-1.032,3.955-2.761,5.136
		c1.955,0.71,4.362,2.41,4.362,6.001C33.983,34.485,29.251,35.899,22.811,35.899z"/>
</g>
</svg>
