<?xml version="1.0" encoding="utf-8"?>
<!-- Generator: Adobe Illustrator 16.0.0, SVG Export Plug-In . SVG Version: 6.00 Build 0)  -->
<!DOCTYPE svg PUBLIC "-//W3C//DTD SVG 1.1//EN" "http://www.w3.org/Graphics/SVG/1.1/DTD/svg11.dtd">
<svg version="1.1" id="Layer_1" xmlns="http://www.w3.org/2000/svg" xmlns:xlink="http://www.w3.org/1999/xlink" x="0px" y="0px"
	 width="150px" height="150px" viewBox="0 0 150 150" enable-background="new 0 0 150 150" xml:space="preserve">
<g>
	<path fill-rule="evenodd" clip-rule="evenodd" fill="#BCBEC0" d="M139.578,49.983c-0.613-0.578-1.621-0.769-2.482-1.044
		c-4.791-1.535-9.604-2.999-14.379-4.575c-5.719-1.891-11.393-3.923-17.117-5.796c-8.355-2.736-16.727-5.427-25.121-8.04
		c-1.957-0.608-4.186-1.498-6.022-1.085c-3.936,0.884-7.693,2.554-11.535,3.868c-7.059,2.418-14.115,4.836-21.188,7.209
		C35.952,42.46,30.14,44.31,24.358,46.25c-4,1.342-8.008,2.673-11.92,4.236c-0.795,0.316-1.637,1.653-1.631,2.515
		c0.006,0.876,0.848,2.037,1.656,2.544c1.033,0.651,2.414,0.734,3.623,1.132c3.326,1.093,6.639,2.224,10.209,3.424
		c0,0-5.66,6.347-5.463,16.36c0,0.002,0,0.004,0,0.005c-3.885,0.783-6.801,4.219-6.783,8.329c0.016,3.422,2.062,6.354,4.992,7.673
		c0.002,0.003,0.002,0.005,0.002,0.008c2.355,5.521-9.418,21.468-9.418,21.468c-1.059,1.316-1.059,2.072,0.311,2.842
		c2.27,1.273,4.508,2.639,6.895,3.646c0.926,0.391,2.428,0.271,3.295-0.244c1.762-1.043,3.523-2.299,4.834-3.848
		c3.432-4.059,3.822-9.064,3.652-14.099c-0.121-3.576-0.615-7.139-0.732-10.713c-0.004-0.077,0.002-0.157,0.004-0.236
		c1.895-1.561,3.1-3.926,3.088-6.571c-0.014-3.033-1.627-5.679-4.031-7.162c0-0.003-0.002-0.007-0.002-0.01
		c0,0,1.227-11.37,7.818-16.196c0.877-0.581,1.83-1.104,2.863-1.561c3.58-1.59,7.258-2.963,10.885-4.45
		c3.303-1.354,6.57-2.798,9.9-4.083c5.078-1.959,10.221-3.753,15.285-5.743c2.562-1.006,3.903-0.66,4.886,1.674
		c0.598,1.425-0.865,3.563-2.815,4.17c-1.639,0.509-3.295,0.982-4.891,1.606c-4.82,1.884-9.604,3.857-14.422,5.75
		c-4.852,1.906-9.727,3.758-14.592,5.634c0.002,0.227,0.006,0.454,0.008,0.68c4.174,1.402,8.342,2.818,12.52,4.204
		c5.01,1.66,10.027,3.296,15.043,4.938c3.15,1.031,6.279,2.392,9.69,1.212c6.83-2.363,13.621-4.838,20.475-7.134
		c6.992-2.342,14.053-4.475,21.055-6.789c6.213-2.055,12.408-4.174,18.555-6.427c0.861-0.316,1.861-1.522,1.928-2.384
		C141.195,51.788,140.32,50.683,139.578,49.983z"/>
	<path fill-rule="evenodd" clip-rule="evenodd" fill="#BCBEC0" d="M115.898,70.167c-3.412,1.178-6.852,2.285-10.273,3.441
		c-6.982,2.359-13.934,4.814-20.949,7.065c-6.203,2.062-11.147,1.659-14.062,1.031c-0.588-0.188-1.193-0.34-1.781-0.531
		c-0.373-0.121-0.746-0.241-1.119-0.362l0,0c-6.65-2.156-13.301-4.307-19.945-6.474c-3.58-1.169-7.139-2.403-10.734-3.519
		c-0.525-0.162-1.434-0.037-1.777,0.323c-0.408,0.432-0.66,1.178-0.775,2.045l-0.002-0.002l0.002,0.015
		c-0.1,0.746-0.098,1.58-0.002,2.386l0.002,4.874l-0.049-0.1l0.049,8.232c0,0-0.168,0.799,0,2.087v0.81c0,0,0.07,0.146,0.234,0.406
		c0.75,2.914,3.195,7.268,10.697,11.02v-0.001c5.908,3.574,14.967,6.688,28.547,6.543c25.403-0.27,42.417-9.05,43.837-20.266
		c0.006-0.036,0.01-0.072,0.014-0.108c0.021-0.178,0.043-0.355,0.057-0.535c0.023-0.308,0.039-0.619,0.039-0.939
		c0.107-5.327,0.01-10.66-0.002-15.991C117.9,70.228,117.342,69.669,115.898,70.167z"/>
</g>
</svg>
