<?xml version="1.0" encoding="utf-8"?>
<!-- Generator: Adobe Illustrator 16.0.0, SVG Export Plug-In . SVG Version: 6.00 Build 0)  -->
<!DOCTYPE svg PUBLIC "-//W3C//DTD SVG 1.1//EN" "http://www.w3.org/Graphics/SVG/1.1/DTD/svg11.dtd">
<svg version="1.1" id="Layer_1" xmlns="http://www.w3.org/2000/svg" xmlns:xlink="http://www.w3.org/1999/xlink" x="0px" y="0px"
	 width="150px" height="150px" viewBox="0 0 150 150" enable-background="new 0 0 150 150" xml:space="preserve">
<path fill="#B3B3B3" d="M120.299,119.77c0.334-0.104,0.605-0.211,0.848-0.314c1.523-0.801,1.889-2.916,1.945-3.32
	c0.045-0.861-0.076-1.83-0.492-2.898c-0.084-0.217-0.129-0.41-0.158-0.592c-1.848-5.613-5.637-12.664-13.328-15.801
	c-0.141-0.057-0.266-0.111-0.393-0.168c-3.879-1.631-7.744-3.291-11.645-4.863c-1.074-0.436-2.219-0.738-3.355-0.963
	c-1.135-0.221-1.869-0.871-2.492-1.77c-0.99-1.428-1.707-3.002-2.449-4.557c-0.34-0.713-0.764-1.197-1.564-1.227
	c-0.389-0.014-0.611-0.109-0.725-0.264c-0.156-0.209-0.1-0.529,0.074-0.924c0.402-0.914,1.055-1.633,1.742-2.336
	c0.146-0.15,0.211-0.383,0.312-0.576c0.381-0.326,0.408-0.771,0.451-1.23c0.178-1.896,0.375-3.792,0.551-5.691
	c0.037-0.382,0.076-0.763,0.109-1.146c0.049-0.571,0.43-0.696,0.826-0.738c0.117-0.013,0.221-0.041,0.33-0.062
	c0.654-0.13,1.168-0.411,1.568-0.809c0.518-0.516,0.859-1.207,1.096-1.974c0.775-2.53,1.098-5.134,1.148-7.77
	c0-0.004,0-0.009,0-0.013l0.018,0.008c0,0,0.393-3.529-0.953-3.547c-0.35-1.542,0.152-3.141,0.377-4.729
	c0.535-3.788,0.678-7.582-0.404-11.306c-0.223-0.766-0.518-1.461-0.846-2.123c-1.014-3.749-2.885-4.473-4.055-4.525
	c-0.582-0.024-0.992,0.112-1.035,0.128c-0.004-0.002-0.006-0.002-0.01-0.004c-0.008-0.022-0.18-0.499-0.756-1.127
	c-1.184-1.288-4.094-3.223-10.967-3.223l0.004,0.002c-0.353,0.002-0.706,0.018-1.06,0.033c-0.67,0.028-1.344,0.07-2.023,0.143
	c-2.947,0.314-5.664,1.466-8.438,2.419c-4.117,1.416-7.027,4.029-8.262,8.277c-1.08,3.724-0.939,7.518-0.404,11.306
	c0.223,1.589,0.727,3.188,0.377,4.729c-1.346,0.018-0.953,3.547-0.953,3.547l0.018-0.008c0.051,2.64,0.373,5.247,1.148,7.782
	c0.447,1.457,1.256,2.659,2.994,2.845c0.396,0.042,0.777,0.167,0.826,0.738c0.197,2.282,0.447,4.559,0.662,6.837
	c0.041,0.459,0.068,0.904,0.449,1.23c0.102,0.193,0.168,0.426,0.314,0.576c0.684,0.703,1.338,1.422,1.74,2.336
	c0.301,0.684,0.271,1.154-0.648,1.188c-0.803,0.029-1.227,0.514-1.566,1.227c-0.742,1.555-1.459,3.129-2.449,4.557
	c-0.623,0.898-1.357,1.549-2.49,1.77c-1.139,0.225-2.283,0.527-3.357,0.963c-3.9,1.572-7.766,3.232-11.643,4.863
	c-0.129,0.057-0.254,0.111-0.395,0.168c-7.766,3.166-11.553,10.324-13.383,15.967c-0.029,0.133-0.074,0.275-0.131,0.426
	c-0.002,0.008-0.004,0.012-0.006,0.02c-0.119,0.379-0.229,0.75-0.33,1.113c-0.139,0.629-0.184,1.221-0.156,1.768
	c0.057,0.402,0.422,2.518,1.945,3.318c0.242,0.104,0.514,0.211,0.848,0.314c0.008,0.002,0.018,0.004,0.021,0.008
	c1.379,0.424,3.605,0.803,7.15,0.889c12.713,0.002,25.426,0.006,38.141,0.01c12.278,0.002,24.556,0.004,36.835,0.008
	c4.307-0.014,6.893-0.432,8.428-0.906C120.281,119.773,120.291,119.771,120.299,119.77z"/>
</svg>
