<?xml version="1.0" encoding="utf-8"?>
<!-- Generator: Adobe Illustrator 16.0.0, SVG Export Plug-In . SVG Version: 6.00 Build 0)  -->
<!DOCTYPE svg PUBLIC "-//W3C//DTD SVG 1.1//EN" "http://www.w3.org/Graphics/SVG/1.1/DTD/svg11.dtd">
<svg version="1.1" id="Layer_1" xmlns="http://www.w3.org/2000/svg" xmlns:xlink="http://www.w3.org/1999/xlink" x="0px" y="0px"
	 width="150px" height="150px" viewBox="0 0 150 150" enable-background="new 0 0 150 150" xml:space="preserve">
<g>
	<path fill-rule="evenodd" clip-rule="evenodd" fill="#BCBEC0" d="M141.69,114.312c0,2.144-2.273,3.884-5.08,3.884H13.39
		c-2.807,0-5.08-1.74-5.08-3.884l0,0c0-2.145,2.273-3.885,5.08-3.885H136.61C139.417,110.427,141.69,112.167,141.69,114.312
		L141.69,114.312z"/>
	<g>
		<path fill="#B3B3B3" d="M128.794,44.455c2.465-2.426,2.008-6.884-1.016-9.955c-3.025-3.073-7.473-3.595-9.938-1.168l-4.824,4.746
			l10.955,11.125L128.794,44.455z"/>
		<polygon fill="#B3B3B3" points="112.901,60.104 121.88,51.26 110.927,40.138 94.495,56.317 94.487,56.326 72.132,78.336 
			73.243,79.462 81.978,88.335 83.087,89.463 112.901,60.104 		"/>
		<polygon fill="#B3B3B3" points="60.464,99.398 63.177,102.153 80.763,91.281 70.366,80.723 		"/>
		<polygon fill="#B3B3B3" points="56.155,105.832 56.679,106.361 61.548,103.756 58.837,101.002 		"/>
	</g>
</g>
</svg>
