<?xml version="1.0" encoding="utf-8"?>
<!-- Generator: Adobe Illustrator 16.0.0, SVG Export Plug-In . SVG Version: 6.00 Build 0)  -->
<!DOCTYPE svg PUBLIC "-//W3C//DTD SVG 1.1//EN" "http://www.w3.org/Graphics/SVG/1.1/DTD/svg11.dtd">
<svg version="1.1" id="Layer_1" xmlns="http://www.w3.org/2000/svg" xmlns:xlink="http://www.w3.org/1999/xlink" x="0px" y="0px"
	 width="61.471px" height="45.78px" viewBox="0 0 61.471 45.78" enable-background="new 0 0 61.471 45.78" xml:space="preserve">
<path fill="#EAE8E5" d="M53.333,0H8.142C3.647,0,0,3.593,0,8.024v29.955c0,4.431,3.647,8.024,8.142,8.024h45.191
	c4.491,0,8.138-3.593,8.138-8.024V8.024C61.471,3.593,57.824,0,53.333,0z M55.333,39.985c-0.47,0.44-1.067,0.658-1.669,0.658
	c-0.652,0-1.306-0.261-1.785-0.776L37.386,24.342l-5.1,4.189l0,0c-0.208,0.169-0.444,0.295-0.687,0.386
	c-0.03,0.013-0.055,0.026-0.082,0.033c-0.03,0.012-0.056,0.027-0.085,0.036c-0.06,0.017-0.124,0.021-0.183,0.036
	c-0.094,0.018-0.187,0.045-0.28,0.054c-0.06,0.005-0.115-0.002-0.175,0c-0.023,0-0.042,0.009-0.056,0.009
	c-0.022,0-0.037-0.009-0.06-0.009c-0.059-0.002-0.115,0.005-0.175,0c-0.085-0.009-0.16-0.03-0.242-0.048
	c-0.075-0.012-0.146-0.021-0.22-0.042c-0.03-0.009-0.056-0.024-0.078-0.034c-0.035-0.009-0.063-0.024-0.093-0.038
	c-0.244-0.091-0.475-0.214-0.68-0.384c0,0,0,0-0.007,0l-5.361-4.407L9.621,39.84c-0.485,0.529-1.146,0.804-1.814,0.804
	c-0.587,0-1.172-0.211-1.639-0.63c-1-0.905-1.079-2.451-0.175-3.453l14.043-15.546L6.253,9.694c-1.042-0.859-1.195-2.396-0.336-3.44
	c0.859-1.043,2.393-1.196,3.438-0.34l2.303,1.891L25.12,18.864l5.617,4.614l19.08-15.673l2.298-1.891
	c1.042-0.856,2.583-0.703,3.438,0.34c0.855,1.043,0.709,2.581-0.336,3.44L41.17,21.23l14.283,15.3
	C56.371,37.517,56.319,39.065,55.333,39.985z"/>
</svg>
