<?xml version="1.0" encoding="utf-8"?>
<!-- Generator: Adobe Illustrator 16.0.0, SVG Export Plug-In . SVG Version: 6.00 Build 0)  -->
<!DOCTYPE svg PUBLIC "-//W3C//DTD SVG 1.1//EN" "http://www.w3.org/Graphics/SVG/1.1/DTD/svg11.dtd">
<svg version="1.1" id="Layer_1" xmlns="http://www.w3.org/2000/svg" xmlns:xlink="http://www.w3.org/1999/xlink" x="0px" y="0px"
	 width="150px" height="150px" viewBox="0 0 150 150" enable-background="new 0 0 150 150" xml:space="preserve">
<g>
	<path fill="#D6DF23" d="M141.689,114.312c0,2.144-2.272,3.883-5.08,3.883H13.39c-2.807,0-5.08-1.739-5.08-3.883l0,0
		c0-2.146,2.273-3.886,5.08-3.886h123.219C139.417,110.427,141.689,112.167,141.689,114.312L141.689,114.312z"/>
	<g>
		<path fill="#D6DF23" d="M128.794,44.455c2.465-2.426,2.008-6.884-1.017-9.955c-3.024-3.073-7.473-3.595-9.938-1.168l-4.824,4.746
			l10.955,11.125L128.794,44.455z"/>
		<polygon fill="#D6DF23" points="112.9,60.104 121.88,51.26 110.927,40.138 94.495,56.317 94.486,56.326 72.132,78.336 
			73.243,79.462 81.979,88.335 83.087,89.463 		"/>
		<polygon fill="#D6DF23" points="60.464,99.398 63.177,102.152 80.764,91.281 70.366,80.723 		"/>
		<polygon fill="#D6DF23" points="56.155,105.832 56.679,106.361 61.548,103.756 58.837,101.002 		"/>
	</g>
</g>
</svg>
