<?xml version="1.0" encoding="utf-8"?>
<!-- Generator: Adobe Illustrator 16.0.0, SVG Export Plug-In . SVG Version: 6.00 Build 0)  -->
<!DOCTYPE svg PUBLIC "-//W3C//DTD SVG 1.1//EN" "http://www.w3.org/Graphics/SVG/1.1/DTD/svg11.dtd">
<svg version="1.1" id="Layer_1" xmlns="http://www.w3.org/2000/svg" xmlns:xlink="http://www.w3.org/1999/xlink" x="0px" y="0px"
	 width="160.282px" height="38px" viewBox="0 0 160.282 38" enable-background="new 0 0 160.282 38" xml:space="preserve">
<g>
	<path fill="#69BD46" d="M18.634,29.916C16.556,31.742,14.213,33,10.354,33C4.675,33,0,29.186,0,22.382
		c0-6.46,4.548-10.663,10.485-10.663c3.728,0,5.938,1.212,8.017,3.037l-1.733,2.206c-1.557-1.476-3.251-2.556-6.151-2.556
		c-4.117,0-7.068,2.905-7.068,7.976c0,5.196,3.164,7.931,7.023,7.931c2.859,0,4.897-1.172,6.282-2.557L18.634,29.916z"/>
	<path fill="#69BD46" d="M45.123,22.337C45.123,28.359,41.138,33,34.379,33c-6.719,0-10.704-4.641-10.704-10.663
		c0-6.07,3.985-10.618,10.704-10.618C41.138,11.719,45.123,16.267,45.123,22.337z M27.224,22.337c0,4.548,2.429,8.062,7.155,8.062
		c4.766,0,7.189-3.514,7.189-8.062c0-4.595-2.424-7.977-7.189-7.977C29.652,14.36,27.224,17.742,27.224,22.337z"/>
	<path fill="#69BD46" d="M68.625,20.08c0-3.768-2.038-5.456-5.42-5.456c-3.118,0-5.37,1.43-6.673,2.556v15.297h-3.464V12.109h3.291
		v2.469c1.476-1.344,3.899-2.859,7.454-2.859c3.687,0,8.28,1.384,8.28,7.844v12.914h-3.428L68.625,20.08z"/>
	<path fill="#69BD46" d="M92.949,31.65c-1.648,0.873-3.25,1.35-5.07,1.35c-3.596,0-6.415-1.648-6.415-7.891
		c0-2.383,0.086-8.103,0.173-10.312h-3.813v-2.688h3.945c0-1.603,0.04-3.641,0.04-5.289L85.146,5c0,2.211-0.041,5.289-0.086,7.109
		h7.194v2.688H85.06c-0.041,2.383-0.173,8.492-0.173,10.1c0,3.16,0.826,5.324,3.601,5.324c1.298,0,2.383-0.432,3.422-1.035
		L92.949,31.65z"/>
	<path fill="#69BD46" d="M111.726,30.525c-1.43,1.125-3.727,2.383-7.499,2.383c-3.854,0-7.063-1.861-7.063-6.283
		c0-4.938,4.249-6.844,8.407-6.844c2.256,0,4.289,0.299,5.896,0.821v-2.033c0-3.296-2.211-4.209-5.156-4.209
		c-2.475,0-5.375,0.913-7.069,1.952l-1.079-2.47c2.251-1.344,5.501-2.124,8.361-2.124c4.381,0,8.366,1.43,8.366,7.195v9.055
		c0,1.217,0.218,2.992,0.694,4.508h-3.514L111.726,30.525z M111.467,22.984c-1.39-0.43-3.123-0.82-5.202-0.82
		c-2.992,0-5.68,1.17-5.68,4.461c0,2.688,1.694,4.117,4.681,4.117c2.688,0,4.771-1.383,6.201-2.732V22.984z"/>
	<path fill="#69BD46" d="M141.206,29.916c-2.079,1.826-4.422,3.084-8.28,3.084c-5.674,0-10.354-3.814-10.354-10.618
		c0-6.46,4.549-10.663,10.486-10.663c3.727,0,5.938,1.212,8.017,3.037l-1.734,2.206c-1.557-1.476-3.25-2.556-6.15-2.556
		c-4.117,0-7.068,2.905-7.068,7.976c0,5.196,3.164,7.931,7.022,7.931c2.86,0,4.898-1.172,6.283-2.557L141.206,29.916z"/>
	<path fill="#69BD46" d="M160.282,31.65c-1.648,0.873-3.251,1.35-5.071,1.35c-3.595,0-6.414-1.648-6.414-7.891
		c0-2.383,0.086-8.103,0.173-10.312h-3.813v-2.688h3.945c0-1.603,0.04-3.641,0.04-5.289L152.479,5c0,2.211-0.041,5.289-0.087,7.109
		h7.195v2.688h-7.195c-0.04,2.383-0.172,8.492-0.172,10.1c0,3.16,0.826,5.324,3.6,5.324c1.299,0,2.384-0.432,3.423-1.035
		L160.282,31.65z"/>
</g>
</svg>
