<?xml version="1.0" encoding="utf-8"?>
<!-- Generator: Adobe Illustrator 16.0.0, SVG Export Plug-In . SVG Version: 6.00 Build 0)  -->
<!DOCTYPE svg PUBLIC "-//W3C//DTD SVG 1.1//EN" "http://www.w3.org/Graphics/SVG/1.1/DTD/svg11.dtd">
<svg version="1.1" id="Layer_1" xmlns="http://www.w3.org/2000/svg" xmlns:xlink="http://www.w3.org/1999/xlink" x="0px" y="0px"
	 width="194.739px" height="38px" viewBox="0 0 194.739 38" enable-background="new 0 0 194.739 38" xml:space="preserve">
<g>
	<path fill="#FAAF42" d="M2.029,7.226c1.088,0,1.992,0.905,1.992,2.001c0,1.094-0.904,2.034-1.992,2.034C0.9,11.261,0,10.32,0,9.227
		C0,8.131,0.9,7.226,2.029,7.226z M3.531,14.811v17.735H0.525V14.811H3.531z"/>
	<path fill="#FAAF42" d="M14.512,5v27.546h-3.009V5H14.512z"/>
	<path fill="#FAAF42" d="M25.451,5v27.546h-3.006V5H25.451z"/>
	<path fill="#FAAF42" d="M36.168,25.266c0,3.655,1.578,5.204,4.698,5.204c2.667,0,4.283-1.549,5.298-2.715V14.811h2.969v12.641
		c0,1.51,0.227,3.509,0.566,5.095h-3.121l-0.301-2.23c-1.128,1.134-2.894,2.605-6.238,2.605c-3.045,0-6.84-1.472-6.84-6.866V14.811
		h2.969V25.266z"/>
	<path fill="#FAAF42" d="M68.763,16.471l-1.352,1.961c-0.79-0.641-2.632-1.66-5.001-1.66c-2.065,0-3.794,0.454-3.794,2.568
		c0,1.735,1.616,2.3,3.533,2.906c2.969,0.905,6.688,1.619,6.688,5.469c0,3.734-3.232,5.285-6.99,5.285
		c-3.044,0-5.599-1.06-7.327-2.49l1.427-1.964c1.203,1.134,3.269,2.301,5.9,2.301c2.368,0,4.172-0.715,4.172-2.94
		c0-1.96-2.254-2.454-4.66-3.171c-2.706-0.796-5.562-1.81-5.562-5.285c0-2.601,2.104-4.979,6.613-4.979
		C65.005,14.471,67.598,15.49,68.763,16.471z"/>
	<path fill="#FAAF42" d="M85.197,31.827C83.768,32.586,82.379,33,80.799,33c-3.121,0-5.562-1.435-5.562-6.869
		c0-2.075,0.074-7.055,0.148-8.98h-3.307v-2.34H75.5c0-1.395,0.037-3.17,0.037-4.605l2.895-1.584c0,1.924-0.037,4.604-0.076,6.189
		h6.238v2.34h-6.238c-0.037,2.074-0.15,7.396-0.15,8.796c0,2.749,0.715,4.635,3.119,4.635c1.127,0,2.066-0.375,2.971-0.901
		L85.197,31.827z"/>
	<path fill="#FAAF42" d="M100.459,17.865c-0.824-0.49-1.764-0.75-2.705-0.75c-2.18,0-3.346,1.546-4.061,3.125v12.306h-3.006V14.811
		h2.895v2.68c0.941-2.035,2.744-3.02,4.549-3.02c1.164,0,2.254,0.225,3.383,0.83L100.459,17.865z"/>
	<path fill="#FAAF42" d="M117.004,30.847c-1.238,0.98-3.23,2.074-6.502,2.074c-3.346,0-6.127-1.62-6.127-5.47
		c0-4.3,3.686-5.961,7.293-5.961c1.953,0,3.721,0.262,5.111,0.715v-1.769c0-2.87-1.916-3.665-4.473-3.665
		c-2.141,0-4.658,0.795-6.125,1.699l-0.941-2.15c1.951-1.17,4.77-1.85,7.254-1.85c3.797,0,7.252,1.245,7.252,6.264v7.886
		c0,1.06,0.189,2.605,0.602,3.926h-3.043L117.004,30.847z M116.779,24.28c-1.205-0.375-2.705-0.714-4.512-0.714
		c-2.59,0-4.924,1.019-4.924,3.885c0,2.34,1.465,3.584,4.061,3.584c2.33,0,4.133-1.205,5.375-2.379V24.28z"/>
	<path fill="#FAAF42" d="M137.459,31.827c-1.426,0.759-2.816,1.173-4.396,1.173c-3.119,0-5.562-1.435-5.562-6.869
		c0-2.075,0.076-7.055,0.148-8.98h-3.303v-2.34h3.418c0-1.395,0.037-3.17,0.037-4.605l2.895-1.584c0,1.924-0.037,4.604-0.074,6.189
		h6.238v2.34h-6.238c-0.039,2.074-0.15,7.396-0.15,8.796c0,2.749,0.713,4.635,3.117,4.635c1.131,0,2.068-0.375,2.971-0.901
		L137.459,31.827z"/>
	<path fill="#FAAF42" d="M144.457,7.226c1.088,0,1.992,0.905,1.992,2.001c0,1.094-0.904,2.034-1.992,2.034
		c-1.131,0-2.031-0.94-2.031-2.034C142.426,8.131,143.326,7.226,144.457,7.226z M145.961,14.811v17.735h-3.006V14.811H145.961z"/>
	<path fill="#FAAF42" d="M171.447,23.716c0,5.245-3.459,9.284-9.322,9.284c-5.824,0-9.283-4.039-9.283-9.284
		c0-5.284,3.459-9.245,9.283-9.245C167.988,14.471,171.447,18.432,171.447,23.716z M155.924,23.716c0,3.96,2.105,7.019,6.201,7.019
		c4.137,0,6.24-3.059,6.24-7.019c0-4.001-2.104-6.944-6.24-6.944C158.029,16.771,155.924,19.715,155.924,23.716z"/>
	<path fill="#FAAF42" d="M191.828,21.752c0-3.281-1.768-4.752-4.701-4.752c-2.707,0-4.658,1.246-5.785,2.225v13.321h-3.01V14.811
		h2.857v2.15c1.279-1.17,3.383-2.49,6.465-2.49c3.195,0,7.18,1.206,7.18,6.83v11.245h-2.969L191.828,21.752z"/>
</g>
</svg>
